<svg xmlns="http://www.w3.org/2000/svg" xmlns:xlink="http://www.w3.org/1999/xlink" width="500" zoomAndPan="magnify" viewBox="0 0 375 374.999991" height="500" preserveAspectRatio="xMidYMid meet" version="1.0"><defs><clipPath id="742e2ec141"><path d="M 57.203125 41.710938 L 317.453125 41.710938 L 317.453125 333 L 57.203125 333 Z M 57.203125 41.710938 " clip-rule="nonzero"/></clipPath></defs><g clip-path="url(#742e2ec141)"><path fill="#ffffff" d="M 145.113281 133.316406 L 145.929688 132.898438 C 146.3125 132.699219 146.71875 132.566406 147.144531 132.496094 C 147.570312 132.425781 148 132.425781 148.425781 132.492188 C 148.851562 132.558594 149.257812 132.691406 149.640625 132.890625 C 150.027344 133.089844 150.371094 133.34375 150.671875 133.652344 L 155.59375 138.574219 C 155.902344 138.875 156.15625 139.21875 156.355469 139.605469 C 156.554688 139.988281 156.6875 140.394531 156.753906 140.820312 C 156.820312 141.246094 156.820312 141.675781 156.75 142.101562 C 156.679688 142.527344 156.546875 142.933594 156.34375 143.316406 L 155.929688 144.132812 C 155.363281 145.199219 155.078125 146.339844 155.070312 147.550781 C 155.0625 148.757812 155.335938 149.902344 155.886719 150.976562 C 156.640625 152.5 157.289062 154.066406 157.835938 155.671875 C 158.207031 156.824219 158.820312 157.824219 159.683594 158.671875 C 160.542969 159.519531 161.546875 160.121094 162.703125 160.480469 L 163.570312 160.761719 C 163.984375 160.890625 164.367188 161.082031 164.71875 161.332031 C 165.066406 161.585938 165.371094 161.886719 165.625 162.238281 C 165.878906 162.585938 166.070312 162.96875 166.203125 163.378906 C 166.335938 163.792969 166.398438 164.214844 166.394531 164.644531 L 166.394531 171.617188 C 166.398438 172.050781 166.335938 172.472656 166.203125 172.886719 C 166.070312 173.296875 165.878906 173.675781 165.625 174.027344 C 165.371094 174.378906 165.066406 174.679688 164.71875 174.929688 C 164.367188 175.183594 163.984375 175.375 163.570312 175.503906 L 162.703125 175.785156 C 161.550781 176.140625 160.542969 176.742188 159.683594 177.59375 C 158.824219 178.441406 158.207031 179.441406 157.835938 180.589844 C 157.289062 182.199219 156.640625 183.765625 155.886719 185.285156 C 155.335938 186.363281 155.0625 187.503906 155.070312 188.714844 C 155.078125 189.921875 155.363281 191.0625 155.929688 192.132812 L 156.34375 192.949219 C 156.546875 193.332031 156.679688 193.734375 156.75 194.164062 C 156.820312 194.589844 156.820312 195.015625 156.753906 195.441406 C 156.6875 195.871094 156.554688 196.277344 156.355469 196.660156 C 156.15625 197.042969 155.902344 197.386719 155.59375 197.691406 L 150.671875 202.613281 C 150.371094 202.921875 150.027344 203.175781 149.640625 203.371094 C 149.257812 203.570312 148.851562 203.703125 148.425781 203.769531 C 148 203.839844 147.570312 203.839844 147.144531 203.769531 C 146.71875 203.699219 146.3125 203.5625 145.929688 203.363281 L 145.113281 202.949219 C 144.042969 202.382812 142.90625 202.097656 141.695312 202.089844 C 140.488281 202.082031 139.34375 202.355469 138.269531 202.90625 C 136.746094 203.660156 135.179688 204.308594 133.574219 204.851562 C 132.421875 205.222656 131.425781 205.839844 130.574219 206.699219 C 129.726562 207.558594 129.125 208.566406 128.769531 209.722656 L 128.484375 210.589844 C 128.355469 211 128.164062 211.382812 127.914062 211.734375 C 127.660156 212.085938 127.359375 212.386719 127.007812 212.640625 C 126.660156 212.894531 126.277344 213.089844 125.867188 213.21875 C 125.457031 213.351562 125.035156 213.414062 124.601562 213.410156 L 117.632812 213.410156 C 117.199219 213.414062 116.777344 213.351562 116.367188 213.21875 C 115.957031 213.089844 115.574219 212.894531 115.226562 212.640625 C 114.875 212.386719 114.574219 212.085938 114.320312 211.734375 C 114.070312 211.382812 113.878906 211 113.75 210.589844 L 113.464844 209.722656 C 113.109375 208.566406 112.507812 207.558594 111.660156 206.699219 C 110.808594 205.839844 109.8125 205.226562 108.660156 204.851562 C 107.054688 204.308594 105.488281 203.65625 103.964844 202.90625 C 102.890625 202.355469 101.746094 202.082031 100.539062 202.089844 C 99.328125 202.097656 98.191406 202.382812 97.121094 202.949219 L 96.304688 203.363281 C 95.921875 203.5625 95.515625 203.699219 95.089844 203.769531 C 94.664062 203.839844 94.234375 203.839844 93.808594 203.769531 C 93.382812 203.703125 92.976562 203.570312 92.59375 203.371094 C 92.207031 203.175781 91.863281 203.921875 91.5625 202.613281 L 86.640625 197.691406 C 86.332031 197.386719 86.078125 197.042969 85.878906 196.660156 C 85.679688 196.277344 85.546875 195.871094 85.480469 195.441406 C 85.414062 195.015625 85.414062 194.589844 85.484375 194.164062 C 85.554688 193.734375 85.6875 193.332031 85.890625 192.949219 L 86.304688 192.132812 C 86.871094 191.0625 87.15625 189.921875 87.164062 188.714844 C 87.171875 187.503906 86.898438 186.363281 86.347656 185.285156 C 85.59375 183.765625 84.945312 182.199219 84.398438 180.589844 C 84.027344 179.441406 83.410156 178.441406 82.550781 177.59375 C 81.691406 176.742188 80.683594 176.140625 79.53125 175.785156 L 78.664062 175.503906 C 78.25 175.375 77.867188 175.183594 77.515625 174.929688 C 77.164062 174.675781 76.863281 174.375 76.609375 174.027344 C 76.355469 173.675781 76.164062 173.296875 76.03125 172.882812 C 75.898438 172.472656 75.835938 172.050781 75.839844 171.617188 L 75.839844 164.652344 C 75.835938 164.21875 75.898438 163.796875 76.03125 163.386719 C 76.164062 162.972656 76.355469 162.59375 76.609375 162.242188 C 76.863281 161.894531 77.164062 161.59375 77.515625 161.339844 C 77.867188 161.085938 78.25 160.894531 78.664062 160.765625 L 79.53125 160.484375 C 80.683594 160.128906 81.691406 159.527344 82.550781 158.675781 C 83.410156 157.828125 84.027344 156.828125 84.398438 155.679688 C 84.945312 154.070312 85.59375 152.503906 86.347656 150.984375 C 86.898438 149.90625 87.171875 148.765625 87.164062 147.554688 C 87.15625 146.347656 86.871094 145.207031 86.304688 144.136719 L 85.890625 143.320312 C 85.6875 142.9375 85.554688 142.535156 85.484375 142.105469 C 85.414062 141.679688 85.414062 141.253906 85.480469 140.828125 C 85.546875 140.398438 85.679688 139.992188 85.878906 139.609375 C 86.078125 139.226562 86.332031 138.882812 86.640625 138.578125 L 91.5625 133.65625 C 91.863281 133.347656 92.207031 133.09375 92.59375 132.898438 C 92.976562 132.699219 93.382812 132.566406 93.808594 132.5 C 94.234375 132.429688 94.664062 132.429688 95.089844 132.5 C 95.515625 132.570312 95.921875 132.707031 96.304688 132.90625 L 97.121094 133.320312 C 98.191406 133.886719 99.328125 134.171875 100.539062 134.179688 C 101.746094 134.1875 102.890625 133.914062 103.964844 133.363281 C 105.488281 132.609375 107.054688 131.960938 108.660156 131.417969 C 109.8125 131.042969 110.808594 130.429688 111.660156 129.570312 C 112.507812 128.710938 113.109375 127.703125 113.464844 126.546875 L 113.75 125.679688 C 113.878906 125.269531 114.070312 124.886719 114.320312 124.535156 C 114.574219 124.183594 114.875 123.882812 115.222656 123.628906 C 115.574219 123.371094 115.957031 123.179688 116.367188 123.046875 C 116.777344 122.917969 117.199219 122.851562 117.632812 122.859375 L 124.601562 122.859375 C 125.03125 122.851562 125.453125 122.917969 125.867188 123.046875 C 126.277344 123.179688 126.660156 123.371094 127.007812 123.628906 C 127.359375 123.882812 127.660156 124.183594 127.910156 124.535156 C 128.164062 124.886719 128.355469 125.269531 128.484375 125.679688 L 128.765625 126.546875 C 129.121094 127.703125 129.726562 128.710938 130.574219 129.570312 C 131.421875 130.429688 132.421875 131.046875 133.570312 131.417969 C 135.179688 131.960938 136.746094 132.609375 138.269531 133.363281 C 139.34375 133.914062 140.484375 134.1875 141.695312 134.179688 C 142.90625 134.171875 144.042969 133.886719 145.113281 133.320312 Z M 183.625 283.410156 C 183.242188 283.328125 182.890625 283.175781 182.566406 282.949219 C 182.242188 282.726562 181.976562 282.449219 181.765625 282.121094 C 181.550781 281.789062 181.410156 281.433594 181.34375 281.046875 C 181.273438 280.660156 181.28125 280.273438 181.367188 279.890625 C 181.449219 279.507812 181.605469 279.15625 181.832031 278.832031 C 182.054688 278.511719 182.335938 278.246094 182.667969 278.035156 C 182.996094 277.828125 183.355469 277.6875 183.742188 277.621094 C 184.128906 277.554688 184.515625 277.566406 184.898438 277.652344 L 239.199219 289.664062 L 239.199219 289.652344 C 239.292969 289.671875 239.382812 289.695312 239.472656 289.722656 C 240.125 289.851562 240.789062 289.914062 241.457031 289.917969 C 242.125 289.921875 242.785156 289.859375 243.441406 289.734375 C 244.097656 289.609375 244.738281 289.425781 245.359375 289.179688 C 245.980469 288.933594 246.570312 288.632812 247.132812 288.273438 C 247.699219 287.914062 248.222656 287.503906 248.707031 287.046875 C 249.191406 286.585938 249.628906 286.085938 250.019531 285.546875 C 250.410156 285.003906 250.746094 284.429688 251.027344 283.824219 C 251.304688 283.214844 251.527344 282.589844 251.6875 281.941406 C 251.710938 281.785156 251.742188 281.636719 251.789062 281.488281 C 252.03125 280.265625 252.050781 279.042969 251.851562 277.8125 C 251.828125 277.703125 251.808594 277.59375 251.792969 277.480469 C 251.535156 276.171875 251.050781 274.957031 250.332031 273.832031 C 249.609375 272.695312 248.703125 271.730469 247.609375 270.945312 C 246.515625 270.160156 245.3125 269.605469 244.003906 269.285156 C 243.839844 269.261719 243.675781 269.226562 243.519531 269.175781 L 198.738281 259.265625 C 198.429688 259.199219 198.136719 259.082031 197.859375 258.917969 L 162.324219 237.714844 C 160.945312 236.863281 159.492188 236.171875 157.964844 235.636719 C 156.433594 235.105469 154.867188 234.742188 153.257812 234.550781 C 151.652344 234.359375 150.039062 234.34375 148.429688 234.503906 C 146.816406 234.664062 145.242188 234.996094 143.703125 235.5 L 94.695312 250.695312 L 106.59375 300.765625 L 108.335938 300.28125 C 110.085938 299.769531 111.867188 299.433594 113.683594 299.269531 C 115.5 299.105469 117.3125 299.121094 119.125 299.3125 C 120.9375 299.503906 122.714844 299.867188 124.453125 300.40625 C 126.195312 300.945312 127.867188 301.648438 129.472656 302.515625 L 181.417969 329.648438 C 182.964844 330.488281 184.589844 331.136719 186.292969 331.59375 C 187.992188 332.046875 189.726562 332.300781 191.488281 332.34375 C 193.246094 332.390625 194.988281 332.226562 196.710938 331.859375 C 198.433594 331.492188 200.089844 330.925781 201.679688 330.164062 L 308.5 281.195312 C 309.125 280.808594 309.746094 280.386719 310.367188 279.929688 C 313.539062 277.574219 315.882812 274.691406 316.878906 271.582031 C 317.820312 268.65625 317.546875 265.449219 315.589844 262.230469 C 315.355469 261.839844 315.070312 261.421875 314.742188 260.976562 C 312.316406 257.726562 309.363281 256.179688 306.25 255.808594 C 302.277344 255.335938 297.917969 256.6875 293.941406 258.882812 L 257.871094 278.769531 C 257.925781 280.097656 257.824219 281.414062 257.558594 282.714844 C 257.550781 282.789062 257.539062 282.859375 257.523438 282.933594 L 257.511719 282.933594 L 257.5 282.992188 C 257.269531 284.027344 256.9375 285.03125 256.511719 286.003906 C 256.082031 286.976562 255.566406 287.898438 254.960938 288.769531 C 254.355469 289.644531 253.671875 290.449219 252.90625 291.1875 C 252.144531 291.925781 251.320312 292.585938 250.429688 293.164062 C 249.539062 293.742188 248.597656 294.230469 247.613281 294.625 C 246.628906 295.023438 245.613281 295.320312 244.570312 295.519531 C 243.527344 295.71875 242.476562 295.816406 241.414062 295.8125 C 240.351562 295.808594 239.300781 295.699219 238.261719 295.492188 C 238.1875 295.480469 238.117188 295.46875 238.042969 295.457031 L 238.042969 295.445312 C 219.894531 291.511719 201.761719 287.417969 183.625 283.410156 Z M 84.847656 244.632812 C 85.140625 244.5625 85.433594 244.550781 85.730469 244.597656 C 86.027344 244.644531 86.304688 244.746094 86.558594 244.902344 C 86.8125 245.058594 87.03125 245.261719 87.207031 245.503906 C 87.378906 245.746094 87.503906 246.015625 87.570312 246.304688 L 102.683594 309.890625 C 102.753906 310.183594 102.765625 310.476562 102.71875 310.773438 C 102.671875 311.070312 102.570312 311.347656 102.414062 311.601562 C 102.257812 311.855469 102.058594 312.074219 101.8125 312.25 C 101.570312 312.425781 101.304688 312.546875 101.011719 312.613281 L 75.191406 318.753906 C 74.902344 318.824219 74.609375 318.835938 74.3125 318.789062 C 74.015625 318.742188 73.738281 318.640625 73.484375 318.484375 C 73.226562 318.328125 73.011719 318.125 72.835938 317.882812 C 72.660156 317.640625 72.539062 317.371094 72.472656 317.082031 L 57.359375 253.492188 C 57.289062 253.199219 57.277344 252.90625 57.324219 252.609375 C 57.371094 252.3125 57.472656 252.039062 57.628906 251.78125 C 57.785156 251.527344 57.984375 251.3125 58.230469 251.136719 C 58.472656 250.960938 58.738281 250.835938 59.03125 250.769531 Z M 280.839844 130.980469 L 282.082031 130.347656 C 282.664062 130.042969 283.277344 129.839844 283.925781 129.734375 C 284.574219 129.625 285.226562 129.625 285.875 129.726562 C 286.523438 129.832031 287.140625 130.03125 287.722656 130.335938 C 288.308594 130.636719 288.832031 131.019531 289.289062 131.492188 L 293.035156 135.234375 L 296.78125 138.980469 C 297.25 139.441406 297.632812 139.964844 297.933594 140.546875 C 298.234375 141.128906 298.4375 141.746094 298.539062 142.394531 C 298.644531 143.046875 298.640625 143.695312 298.535156 144.34375 C 298.429688 144.992188 298.226562 145.605469 297.921875 146.1875 L 297.289062 147.429688 C 296.867188 148.230469 296.542969 149.070312 296.324219 149.949219 C 296.101562 150.828125 295.988281 151.71875 295.984375 152.625 C 295.976562 153.53125 296.082031 154.421875 296.289062 155.304688 C 296.5 156.1875 296.8125 157.03125 297.226562 157.835938 C 298.367188 160.148438 299.355469 162.53125 300.1875 164.976562 C 300.464844 165.835938 300.839844 166.652344 301.316406 167.425781 C 301.789062 168.195312 302.347656 168.898438 302.992188 169.535156 C 303.636719 170.167969 304.347656 170.71875 305.125 171.183594 C 305.902344 171.648438 306.722656 172.015625 307.585938 172.28125 L 308.90625 172.710938 C 309.535156 172.90625 310.113281 173.199219 310.648438 173.582031 C 311.183594 173.964844 311.640625 174.421875 312.027344 174.953125 C 312.414062 175.488281 312.707031 176.066406 312.90625 176.691406 C 313.109375 177.316406 313.203125 177.960938 313.199219 178.617188 L 313.199219 189.207031 C 313.203125 189.867188 313.109375 190.507812 312.90625 191.132812 C 312.707031 191.761719 312.414062 192.339844 312.027344 192.871094 C 311.640625 193.402344 311.183594 193.859375 310.648438 194.242188 C 310.113281 194.628906 309.535156 194.917969 308.90625 195.113281 L 307.585938 195.542969 C 306.722656 195.8125 305.902344 196.175781 305.125 196.640625 C 304.347656 197.105469 303.636719 197.65625 302.992188 198.292969 C 302.351562 198.929688 301.789062 199.632812 301.316406 200.402344 C 300.839844 201.171875 300.464844 201.988281 300.1875 202.851562 C 299.359375 205.296875 298.371094 207.675781 297.226562 209.992188 C 296.8125 210.796875 296.5 211.640625 296.292969 212.519531 C 296.082031 213.402344 295.980469 214.296875 295.984375 215.203125 C 295.992188 216.109375 296.101562 217 296.324219 217.878906 C 296.542969 218.757812 296.867188 219.597656 297.289062 220.398438 L 297.921875 221.636719 C 298.226562 222.222656 298.429688 222.835938 298.539062 223.484375 C 298.644531 224.132812 298.644531 224.78125 298.542969 225.433594 C 298.4375 226.082031 298.238281 226.699219 297.9375 227.28125 C 297.632812 227.867188 297.25 228.386719 296.78125 228.847656 L 289.289062 236.339844 C 288.832031 236.808594 288.308594 237.191406 287.722656 237.496094 C 287.140625 237.796875 286.523438 237.996094 285.875 238.101562 C 285.226562 238.203125 284.574219 238.203125 283.925781 238.097656 C 283.277344 237.988281 282.664062 237.785156 282.082031 237.480469 L 280.839844 236.847656 C 280.039062 236.425781 279.199219 236.101562 278.320312 235.882812 C 277.441406 235.660156 276.550781 235.546875 275.644531 235.542969 C 274.738281 235.539062 273.84375 235.640625 272.964844 235.851562 C 272.082031 236.058594 271.238281 236.371094 270.433594 236.785156 C 268.117188 237.929688 265.738281 238.914062 263.292969 239.746094 C 262.429688 240.023438 261.613281 240.398438 260.84375 240.875 C 260.074219 241.347656 259.371094 241.910156 258.734375 242.550781 C 258.097656 243.195312 257.546875 243.90625 257.082031 244.683594 C 256.617188 245.460938 256.253906 246.28125 255.984375 247.144531 L 255.558594 248.464844 C 255.359375 249.09375 255.070312 249.675781 254.6875 250.207031 C 254.300781 250.742188 253.84375 251.203125 253.3125 251.585938 C 252.78125 251.972656 252.203125 252.265625 251.574219 252.46875 C 250.949219 252.667969 250.308594 252.765625 249.652344 252.757812 L 239.058594 252.757812 C 238.402344 252.765625 237.761719 252.667969 237.132812 252.46875 C 236.507812 252.265625 235.929688 251.972656 235.398438 251.585938 C 234.867188 251.203125 234.40625 250.742188 234.023438 250.207031 C 233.640625 249.675781 233.351562 249.09375 233.152344 248.464844 L 232.722656 247.144531 C 232.457031 246.28125 232.089844 245.460938 231.625 244.683594 C 231.160156 243.90625 230.613281 243.195312 229.976562 242.554688 C 229.339844 241.910156 228.636719 241.347656 227.867188 240.875 C 227.09375 240.398438 226.277344 240.023438 225.417969 239.746094 C 222.972656 238.914062 220.59375 237.929688 218.277344 236.785156 C 217.472656 236.371094 216.628906 236.058594 215.746094 235.851562 C 214.867188 235.640625 213.972656 235.539062 213.066406 235.542969 C 212.160156 235.546875 211.269531 235.660156 210.390625 235.882812 C 209.511719 236.101562 208.671875 236.425781 207.871094 236.847656 L 206.628906 237.480469 C 206.046875 237.785156 205.429688 237.988281 204.78125 238.097656 C 204.132812 238.203125 203.484375 238.203125 202.835938 238.101562 C 202.1875 237.996094 201.570312 237.796875 200.988281 237.496094 C 200.402344 237.191406 199.878906 236.808594 199.421875 236.339844 L 191.929688 228.847656 C 191.460938 228.390625 191.074219 227.867188 190.773438 227.28125 C 190.472656 226.699219 190.269531 226.082031 190.167969 225.433594 C 190.066406 224.785156 190.066406 224.132812 190.171875 223.484375 C 190.28125 222.835938 190.484375 222.222656 190.789062 221.640625 L 191.421875 220.398438 C 191.84375 219.597656 192.164062 218.757812 192.386719 217.878906 C 192.605469 217 192.71875 216.109375 192.726562 215.203125 C 192.730469 214.296875 192.628906 213.402344 192.417969 212.523438 C 192.210938 211.640625 191.898438 210.796875 191.484375 209.992188 C 190.339844 207.675781 189.351562 205.296875 188.523438 202.851562 C 188.242188 201.988281 187.867188 201.171875 187.390625 200.402344 C 186.917969 199.632812 186.359375 198.929688 185.714844 198.292969 C 185.070312 197.65625 184.359375 197.105469 183.582031 196.640625 C 182.804688 196.175781 181.984375 195.8125 181.121094 195.542969 L 179.800781 195.113281 C 179.171875 194.917969 178.59375 194.628906 178.058594 194.242188 C 177.523438 193.859375 177.066406 193.402344 176.679688 192.871094 C 176.292969 192.339844 176 191.761719 175.800781 191.132812 C 175.597656 190.507812 175.503906 189.867188 175.507812 189.207031 L 175.507812 178.621094 C 175.503906 177.960938 175.597656 177.320312 175.800781 176.695312 C 176 176.066406 176.292969 175.488281 176.679688 174.957031 C 177.066406 174.425781 177.523438 173.96875 178.058594 173.585938 C 178.59375 173.199219 179.171875 172.910156 179.800781 172.714844 L 181.121094 172.285156 C 181.984375 172.019531 182.804688 171.652344 183.582031 171.1875 C 184.359375 170.722656 185.070312 170.171875 185.714844 169.535156 C 186.359375 168.902344 186.917969 168.195312 187.394531 167.425781 C 187.867188 166.65625 188.242188 165.839844 188.523438 164.976562 C 189.351562 162.53125 190.339844 160.152344 191.484375 157.839844 C 191.894531 157.03125 192.207031 156.1875 192.417969 155.308594 C 192.628906 154.425781 192.730469 153.53125 192.722656 152.625 C 192.71875 151.722656 192.605469 150.828125 192.386719 149.949219 C 192.164062 149.070312 191.84375 148.230469 191.417969 147.429688 L 190.785156 146.191406 C 190.484375 145.609375 190.277344 144.992188 190.171875 144.34375 C 190.066406 143.695312 190.066406 143.046875 190.167969 142.398438 C 190.269531 141.746094 190.472656 141.132812 190.773438 140.546875 C 191.074219 139.960938 191.460938 139.441406 191.929688 138.980469 L 195.675781 135.234375 L 199.421875 131.492188 C 199.878906 131.023438 200.402344 130.636719 200.984375 130.335938 C 201.570312 130.035156 202.1875 129.832031 202.835938 129.730469 C 203.484375 129.625 204.132812 129.628906 204.78125 129.734375 C 205.429688 129.839844 206.042969 130.046875 206.628906 130.347656 L 207.867188 130.980469 C 208.667969 131.40625 209.507812 131.726562 210.386719 131.945312 C 211.265625 132.167969 212.15625 132.28125 213.0625 132.285156 C 213.96875 132.292969 214.863281 132.1875 215.742188 131.980469 C 216.625 131.769531 217.46875 131.457031 218.273438 131.042969 C 220.589844 129.902344 222.96875 128.914062 225.414062 128.085938 C 226.277344 127.804688 227.09375 127.429688 227.863281 126.957031 C 228.632812 126.480469 229.335938 125.921875 229.972656 125.277344 C 230.609375 124.632812 231.160156 123.921875 231.625 123.144531 C 232.089844 122.367188 232.453125 121.546875 232.722656 120.683594 L 233.152344 119.363281 C 233.347656 118.734375 233.636719 118.15625 234.023438 117.621094 C 234.40625 117.085938 234.863281 116.628906 235.394531 116.242188 C 235.925781 115.855469 236.503906 115.5625 237.132812 115.363281 C 237.757812 115.160156 238.398438 115.066406 239.058594 115.070312 L 249.648438 115.070312 C 250.304688 115.066406 250.949219 115.160156 251.574219 115.363281 C 252.199219 115.5625 252.777344 115.855469 253.3125 116.242188 C 253.84375 116.628906 254.300781 117.085938 254.683594 117.621094 C 255.066406 118.15625 255.359375 118.734375 255.554688 119.363281 L 255.984375 120.683594 C 256.25 121.546875 256.617188 122.367188 257.082031 123.144531 C 257.546875 123.921875 258.097656 124.632812 258.734375 125.277344 C 259.367188 125.917969 260.070312 126.480469 260.84375 126.953125 C 261.613281 127.429688 262.429688 127.804688 263.289062 128.082031 C 265.734375 128.910156 268.117188 129.898438 270.429688 131.042969 C 271.238281 131.457031 272.082031 131.765625 272.960938 131.976562 C 273.84375 132.1875 274.734375 132.289062 275.640625 132.285156 C 276.546875 132.277344 277.441406 132.164062 278.316406 131.945312 C 279.195312 131.722656 280.035156 131.402344 280.835938 130.980469 Z M 244.355469 146.457031 C 243.128906 146.457031 241.90625 146.519531 240.683594 146.636719 C 239.460938 146.757812 238.25 146.9375 237.046875 147.179688 C 235.84375 147.417969 234.65625 147.714844 233.480469 148.070312 C 232.308594 148.425781 231.152344 148.839844 230.019531 149.308594 C 228.886719 149.777344 227.78125 150.304688 226.699219 150.882812 C 225.617188 151.460938 224.566406 152.089844 223.542969 152.769531 C 222.523438 153.453125 221.539062 154.183594 220.59375 154.960938 C 219.644531 155.738281 218.734375 156.5625 217.867188 157.429688 C 217 158.296875 216.179688 159.203125 215.398438 160.152344 C 214.621094 161.101562 213.890625 162.085938 213.210938 163.105469 C 212.527344 164.125 211.898438 165.175781 211.320312 166.257812 C 210.742188 167.339844 210.21875 168.449219 209.75 169.582031 C 209.277344 170.714844 208.867188 171.867188 208.511719 173.042969 C 208.152344 174.214844 207.855469 175.40625 207.617188 176.609375 C 207.378906 177.8125 207.199219 179.023438 207.078125 180.246094 C 206.957031 181.464844 206.898438 182.6875 206.898438 183.914062 C 206.898438 185.144531 206.957031 186.367188 207.078125 187.585938 C 207.199219 188.808594 207.378906 190.019531 207.617188 191.222656 C 207.855469 192.425781 208.152344 193.617188 208.511719 194.789062 C 208.867188 195.964844 209.277344 197.117188 209.75 198.25 C 210.21875 199.382812 210.742188 200.492188 211.320312 201.574219 C 211.898438 202.65625 212.527344 203.707031 213.210938 204.726562 C 213.890625 205.746094 214.621094 206.730469 215.398438 207.679688 C 216.179688 208.628906 217 209.535156 217.867188 210.402344 C 218.734375 211.269531 219.644531 212.09375 220.59375 212.871094 C 221.539062 213.648438 222.523438 214.378906 223.542969 215.0625 C 224.566406 215.742188 225.617188 216.371094 226.699219 216.949219 C 227.78125 217.527344 228.886719 218.050781 230.019531 218.523438 C 231.152344 218.992188 232.308594 219.40625 233.480469 219.761719 C 234.65625 220.117188 235.84375 220.414062 237.046875 220.652344 C 238.25 220.894531 239.460938 221.074219 240.683594 221.191406 C 241.90625 221.3125 243.128906 221.375 244.355469 221.375 C 245.582031 221.375 246.804688 221.3125 248.027344 221.191406 C 249.246094 221.074219 250.460938 220.894531 251.664062 220.652344 C 252.867188 220.414062 254.054688 220.117188 255.226562 219.761719 C 256.402344 219.402344 257.554688 218.992188 258.691406 218.523438 C 259.824219 218.050781 260.929688 217.527344 262.011719 216.949219 C 263.09375 216.371094 264.144531 215.742188 265.164062 215.058594 C 266.1875 214.378906 267.167969 213.648438 268.117188 212.871094 C 269.066406 212.09375 269.972656 211.269531 270.839844 210.402344 C 271.710938 209.535156 272.53125 208.625 273.308594 207.679688 C 274.089844 206.730469 274.820312 205.746094 275.5 204.726562 C 276.179688 203.707031 276.8125 202.65625 277.390625 201.574219 C 277.96875 200.492188 278.492188 199.382812 278.960938 198.25 C 279.429688 197.117188 279.84375 195.960938 280.199219 194.789062 C 280.554688 193.613281 280.855469 192.425781 281.09375 191.222656 C 281.332031 190.019531 281.511719 188.808594 281.632812 187.585938 C 281.753906 186.367188 281.8125 185.140625 281.8125 183.914062 C 281.8125 182.6875 281.753906 181.464844 281.632812 180.242188 C 281.511719 179.023438 281.332031 177.8125 281.09375 176.609375 C 280.851562 175.40625 280.554688 174.214844 280.199219 173.042969 C 279.84375 171.867188 279.429688 170.714844 278.960938 169.582031 C 278.492188 168.449219 277.96875 167.339844 277.390625 166.257812 C 276.8125 165.175781 276.179688 164.125 275.5 163.105469 C 274.816406 162.085938 274.089844 161.101562 273.308594 160.152344 C 272.53125 159.203125 271.707031 158.296875 270.839844 157.429688 C 269.972656 156.5625 269.066406 155.738281 268.117188 154.960938 C 267.167969 154.183594 266.183594 153.453125 265.164062 152.769531 C 264.144531 152.089844 263.09375 151.460938 262.011719 150.882812 C 260.929688 150.304688 259.824219 149.777344 258.6875 149.308594 C 257.554688 148.839844 256.402344 148.425781 255.226562 148.070312 C 254.054688 147.714844 252.867188 147.417969 251.664062 147.179688 C 250.460938 146.9375 249.246094 146.757812 248.027344 146.636719 C 246.804688 146.519531 245.582031 146.457031 244.355469 146.457031 Z M 216.707031 50.484375 C 215.808594 50.957031 214.855469 51.195312 213.84375 51.203125 C 212.828125 51.207031 211.871094 50.980469 210.96875 50.519531 C 209.691406 49.886719 208.378906 49.34375 207.03125 48.886719 C 206.070312 48.574219 205.230469 48.058594 204.519531 47.335938 C 203.808594 46.617188 203.300781 45.773438 203.003906 44.804688 L 202.769531 44.078125 C 202.660156 43.730469 202.5 43.410156 202.289062 43.117188 C 202.078125 42.824219 201.824219 42.570312 201.53125 42.355469 C 201.238281 42.144531 200.917969 41.980469 200.574219 41.871094 C 200.230469 41.761719 199.875 41.707031 199.511719 41.710938 L 193.671875 41.710938 C 193.3125 41.707031 192.957031 41.761719 192.613281 41.871094 C 192.265625 41.980469 191.949219 42.144531 191.652344 42.355469 C 191.359375 42.570312 191.109375 42.824219 190.898438 43.117188 C 190.6875 43.410156 190.527344 43.730469 190.417969 44.078125 L 190.183594 44.804688 C 189.882812 45.773438 189.378906 46.617188 188.667969 47.335938 C 187.957031 48.058594 187.117188 48.574219 186.15625 48.886719 C 184.804688 49.34375 183.492188 49.886719 182.21875 50.519531 C 181.316406 50.980469 180.359375 51.207031 179.34375 51.203125 C 178.332031 51.195312 177.375 50.957031 176.480469 50.484375 L 175.796875 50.132812 C 175.476562 49.964844 175.136719 49.855469 174.777344 49.796875 C 174.421875 49.738281 174.0625 49.734375 173.703125 49.792969 C 173.347656 49.847656 173.007812 49.960938 172.683594 50.125 C 172.363281 50.292969 172.074219 50.503906 171.820312 50.765625 L 167.691406 54.894531 C 167.429688 55.148438 167.21875 55.4375 167.050781 55.757812 C 166.886719 56.082031 166.773438 56.421875 166.71875 56.777344 C 166.660156 57.136719 166.660156 57.496094 166.71875 57.851562 C 166.777344 58.210938 166.890625 58.550781 167.058594 58.871094 L 167.410156 59.554688 C 167.882812 60.449219 168.121094 61.40625 168.128906 62.417969 C 168.132812 63.433594 167.90625 64.390625 167.441406 65.292969 C 166.8125 66.570312 166.269531 67.882812 165.808594 69.230469 C 165.5 70.191406 164.984375 71.03125 164.261719 71.742188 C 163.542969 72.453125 162.699219 72.960938 161.730469 73.257812 L 161.003906 73.492188 C 160.65625 73.601562 160.335938 73.761719 160.042969 73.972656 C 159.75 74.183594 159.496094 74.4375 159.28125 74.730469 C 159.070312 75.023438 158.90625 75.339844 158.796875 75.6875 C 158.6875 76.03125 158.632812 76.386719 158.636719 76.746094 L 158.636719 82.585938 C 158.632812 82.949219 158.6875 83.304688 158.796875 83.648438 C 158.90625 83.992188 159.070312 84.3125 159.28125 84.605469 C 159.496094 84.898438 159.75 85.152344 160.042969 85.363281 C 160.339844 85.574219 160.65625 85.734375 161.003906 85.84375 L 161.730469 86.078125 C 162.699219 86.375 163.542969 86.882812 164.265625 87.59375 C 164.984375 88.304688 165.5 89.140625 165.8125 90.105469 C 166.269531 91.453125 166.8125 92.765625 167.445312 94.042969 C 167.90625 94.945312 168.132812 95.902344 168.128906 96.914062 C 168.121094 97.929688 167.882812 98.882812 167.410156 99.78125 L 167.0625 100.464844 C 166.894531 100.785156 166.78125 101.125 166.722656 101.484375 C 166.664062 101.839844 166.660156 102.199219 166.71875 102.554688 C 166.777344 102.914062 166.886719 103.253906 167.054688 103.574219 C 167.21875 103.898438 167.433594 104.1875 167.691406 104.441406 L 171.820312 108.570312 C 172.074219 108.828125 172.359375 109.039062 172.683594 109.207031 C 173.003906 109.371094 173.34375 109.484375 173.703125 109.539062 C 174.0625 109.597656 174.417969 109.597656 174.777344 109.539062 C 175.132812 109.480469 175.472656 109.367188 175.796875 109.199219 L 176.480469 108.851562 C 177.375 108.375 178.328125 108.136719 179.34375 108.128906 C 180.355469 108.125 181.316406 108.351562 182.214844 108.816406 C 183.492188 109.445312 184.804688 109.988281 186.152344 110.449219 C 187.117188 110.757812 187.953125 111.273438 188.667969 111.996094 C 189.378906 112.714844 189.882812 113.558594 190.183594 114.527344 L 190.417969 115.257812 C 190.523438 115.601562 190.683594 115.921875 190.894531 116.214844 C 191.109375 116.511719 191.359375 116.761719 191.652344 116.976562 C 191.945312 117.191406 192.265625 117.351562 192.609375 117.460938 C 192.957031 117.570312 193.308594 117.625 193.671875 117.621094 L 199.511719 117.621094 C 199.875 117.625 200.226562 117.570312 200.574219 117.460938 C 200.917969 117.351562 201.238281 117.191406 201.53125 116.976562 C 201.824219 116.761719 202.074219 116.511719 202.289062 116.214844 C 202.5 115.921875 202.660156 115.601562 202.769531 115.257812 L 203.003906 114.527344 C 203.300781 113.558594 203.804688 112.714844 204.515625 111.996094 C 205.230469 111.273438 206.066406 110.757812 207.03125 110.449219 C 208.378906 109.988281 209.691406 109.445312 210.96875 108.816406 C 211.867188 108.351562 212.828125 108.125 213.839844 108.128906 C 214.855469 108.136719 215.808594 108.375 216.703125 108.851562 L 217.386719 109.199219 C 217.710938 109.367188 218.050781 109.480469 218.40625 109.539062 C 218.765625 109.597656 219.121094 109.597656 219.480469 109.539062 C 219.839844 109.484375 220.179688 109.371094 220.5 109.207031 C 220.824219 109.039062 221.109375 108.828125 221.363281 108.570312 L 225.492188 104.441406 C 225.75 104.1875 225.964844 103.898438 226.128906 103.574219 C 226.296875 103.253906 226.410156 102.914062 226.464844 102.554688 C 226.523438 102.199219 226.519531 101.839844 226.460938 101.484375 C 226.402344 101.125 226.289062 100.785156 226.121094 100.464844 L 225.773438 99.78125 C 225.300781 98.882812 225.0625 97.929688 225.054688 96.917969 C 225.050781 95.902344 225.277344 94.945312 225.738281 94.042969 C 226.371094 92.765625 226.914062 91.453125 227.371094 90.105469 C 227.683594 89.140625 228.199219 88.304688 228.917969 87.59375 C 229.640625 86.882812 230.484375 86.375 231.453125 86.078125 L 232.179688 85.84375 C 232.527344 85.734375 232.847656 85.574219 233.140625 85.363281 C 233.433594 85.152344 233.6875 84.898438 233.902344 84.605469 C 234.113281 84.3125 234.277344 83.992188 234.386719 83.648438 C 234.496094 83.304688 234.550781 82.949219 234.546875 82.585938 L 234.546875 76.746094 C 234.550781 76.386719 234.496094 76.03125 234.386719 75.6875 C 234.277344 75.339844 234.113281 75.023438 233.902344 74.730469 C 233.6875 74.433594 233.433594 74.183594 233.140625 73.972656 C 232.847656 73.761719 232.527344 73.601562 232.179688 73.492188 L 231.453125 73.257812 C 230.484375 72.957031 229.640625 72.453125 228.917969 71.742188 C 228.199219 71.03125 227.683594 70.191406 227.371094 69.230469 C 226.914062 67.882812 226.371094 66.570312 225.738281 65.292969 C 225.277344 64.390625 225.050781 63.433594 225.054688 62.417969 C 225.0625 61.40625 225.300781 60.449219 225.773438 59.554688 L 226.121094 58.871094 C 226.289062 58.550781 226.402344 58.210938 226.464844 57.851562 C 226.523438 57.496094 226.523438 57.136719 226.464844 56.78125 C 226.410156 56.421875 226.296875 56.082031 226.132812 55.757812 C 225.96875 55.4375 225.753906 55.148438 225.496094 54.894531 L 223.429688 52.832031 L 221.367188 50.765625 C 221.113281 50.507812 220.824219 50.292969 220.503906 50.128906 C 220.179688 49.960938 219.839844 49.851562 219.484375 49.792969 C 219.125 49.738281 218.765625 49.738281 218.410156 49.796875 C 218.050781 49.855469 217.710938 49.96875 217.390625 50.136719 Z M 196.59375 62.511719 C 197.15625 62.511719 197.714844 62.539062 198.273438 62.59375 C 198.832031 62.652344 199.386719 62.734375 199.9375 62.84375 C 200.488281 62.953125 201.035156 63.089844 201.570312 63.25 C 202.109375 63.414062 202.636719 63.605469 203.15625 63.820312 C 203.675781 64.035156 204.183594 64.273438 204.679688 64.539062 C 205.175781 64.804688 205.65625 65.089844 206.121094 65.402344 C 206.589844 65.714844 207.039062 66.050781 207.476562 66.40625 C 207.910156 66.761719 208.324219 67.140625 208.722656 67.535156 C 209.121094 67.933594 209.496094 68.351562 209.851562 68.785156 C 210.207031 69.21875 210.542969 69.667969 210.855469 70.136719 C 211.167969 70.601562 211.457031 71.085938 211.71875 71.578125 C 211.984375 72.074219 212.226562 72.582031 212.441406 73.101562 C 212.65625 73.621094 212.84375 74.148438 213.007812 74.6875 C 213.171875 75.222656 213.308594 75.769531 213.417969 76.320312 C 213.527344 76.871094 213.609375 77.425781 213.664062 77.984375 C 213.71875 78.542969 213.746094 79.105469 213.746094 79.664062 C 213.746094 80.226562 213.71875 80.789062 213.664062 81.347656 C 213.609375 81.90625 213.527344 82.460938 213.417969 83.011719 C 213.308594 83.5625 213.171875 84.109375 213.007812 84.644531 C 212.84375 85.183594 212.65625 85.710938 212.441406 86.230469 C 212.226562 86.75 211.984375 87.257812 211.722656 87.753906 C 211.457031 88.246094 211.167969 88.730469 210.855469 89.195312 C 210.542969 89.664062 210.210938 90.113281 209.851562 90.546875 C 209.496094 90.980469 209.121094 91.398438 208.722656 91.796875 C 208.324219 92.191406 207.910156 92.570312 207.476562 92.925781 C 207.039062 93.28125 206.589844 93.617188 206.125 93.929688 C 205.65625 94.242188 205.175781 94.527344 204.679688 94.792969 C 204.183594 95.058594 203.675781 95.296875 203.15625 95.515625 C 202.640625 95.730469 202.109375 95.917969 201.574219 96.082031 C 201.035156 96.242188 200.492188 96.378906 199.941406 96.488281 C 199.390625 96.601562 198.832031 96.683594 198.273438 96.738281 C 197.714844 96.792969 197.15625 96.820312 196.59375 96.820312 C 196.03125 96.820312 195.472656 96.792969 194.914062 96.738281 C 194.351562 96.683594 193.796875 96.601562 193.246094 96.492188 C 192.695312 96.378906 192.152344 96.246094 191.613281 96.082031 C 191.078125 95.917969 190.546875 95.730469 190.027344 95.515625 C 189.511719 95.300781 189.003906 95.058594 188.507812 94.792969 C 188.011719 94.53125 187.53125 94.242188 187.0625 93.929688 C 186.597656 93.617188 186.144531 93.28125 185.710938 92.925781 C 185.277344 92.570312 184.863281 92.195312 184.464844 91.796875 C 184.066406 91.398438 183.691406 90.984375 183.332031 90.550781 C 182.976562 90.113281 182.644531 89.664062 182.332031 89.195312 C 182.019531 88.730469 181.730469 88.25 181.464844 87.753906 C 181.199219 87.257812 180.960938 86.75 180.746094 86.230469 C 180.53125 85.710938 180.339844 85.183594 180.179688 84.648438 C 180.015625 84.109375 179.878906 83.566406 179.769531 83.015625 C 179.660156 82.464844 179.578125 81.90625 179.523438 81.347656 C 179.46875 80.789062 179.4375 80.230469 179.4375 79.667969 C 179.4375 79.105469 179.464844 78.546875 179.523438 77.984375 C 179.578125 77.425781 179.660156 76.871094 179.769531 76.320312 C 179.878906 75.769531 180.015625 75.226562 180.175781 74.6875 C 180.339844 74.148438 180.53125 73.621094 180.746094 73.101562 C 180.960938 72.582031 181.199219 72.078125 181.464844 71.582031 C 181.730469 71.085938 182.015625 70.605469 182.328125 70.136719 C 182.640625 69.667969 182.976562 69.21875 183.332031 68.785156 C 183.6875 68.351562 184.066406 67.933594 184.460938 67.539062 C 184.859375 67.140625 185.277344 66.761719 185.710938 66.40625 C 186.144531 66.050781 186.59375 65.714844 187.0625 65.402344 C 187.53125 65.089844 188.011719 64.804688 188.507812 64.539062 C 189 64.273438 189.507812 64.035156 190.027344 63.820312 C 190.546875 63.605469 191.074219 63.414062 191.613281 63.25 C 192.152344 63.089844 192.695312 62.953125 193.246094 62.84375 C 193.796875 62.734375 194.351562 62.652344 194.910156 62.59375 C 195.46875 62.539062 196.03125 62.511719 196.59375 62.511719 Z M 121.117188 147.667969 C 120.445312 147.667969 119.777344 147.703125 119.109375 147.769531 C 118.445312 147.832031 117.78125 147.933594 117.125 148.0625 C 116.46875 148.191406 115.816406 148.355469 115.175781 148.550781 C 114.535156 148.746094 113.90625 148.96875 113.285156 149.226562 C 112.667969 149.484375 112.0625 149.769531 111.46875 150.085938 C 110.878906 150.402344 110.304688 150.746094 109.746094 151.117188 C 109.191406 151.492188 108.652344 151.890625 108.132812 152.3125 C 107.617188 152.738281 107.121094 153.1875 106.644531 153.664062 C 106.171875 154.136719 105.722656 154.632812 105.296875 155.152344 C 104.871094 155.667969 104.472656 156.207031 104.101562 156.765625 C 103.730469 157.320312 103.382812 157.894531 103.070312 158.488281 C 102.753906 159.078125 102.464844 159.683594 102.210938 160.300781 C 101.953125 160.921875 101.726562 161.550781 101.535156 162.191406 C 101.339844 162.835938 101.175781 163.484375 101.046875 164.140625 C 100.914062 164.796875 100.816406 165.460938 100.75 166.128906 C 100.683594 166.792969 100.652344 167.464844 100.652344 168.132812 C 100.652344 168.804688 100.683594 169.472656 100.75 170.140625 C 100.816406 170.804688 100.914062 171.46875 101.046875 172.125 C 101.175781 172.78125 101.339844 173.433594 101.535156 174.074219 C 101.726562 174.714844 101.953125 175.34375 102.210938 175.964844 C 102.464844 176.582031 102.753906 177.1875 103.070312 177.78125 C 103.382812 178.371094 103.730469 178.945312 104.101562 179.503906 C 104.472656 180.058594 104.871094 180.597656 105.296875 181.117188 C 105.722656 181.632812 106.171875 182.128906 106.644531 182.605469 C 107.121094 183.078125 107.617188 183.527344 108.132812 183.953125 C 108.652344 184.378906 109.191406 184.777344 109.746094 185.148438 C 110.304688 185.519531 110.878906 185.867188 111.46875 186.179688 C 112.0625 186.496094 112.664062 186.785156 113.285156 187.039062 C 113.902344 187.296875 114.535156 187.523438 115.175781 187.714844 C 115.816406 187.910156 116.464844 188.074219 117.125 188.203125 C 117.78125 188.335938 118.445312 188.433594 119.109375 188.5 C 119.777344 188.566406 120.445312 188.597656 121.117188 188.597656 C 121.785156 188.597656 122.457031 188.566406 123.121094 188.5 C 123.789062 188.433594 124.453125 188.335938 125.109375 188.203125 C 125.765625 188.074219 126.414062 187.910156 127.058594 187.714844 C 127.699219 187.523438 128.328125 187.296875 128.949219 187.039062 C 129.566406 186.785156 130.171875 186.496094 130.761719 186.179688 C 131.355469 185.867188 131.929688 185.519531 132.484375 185.148438 C 133.042969 184.777344 133.582031 184.378906 134.097656 183.953125 C 134.617188 183.527344 135.113281 183.078125 135.585938 182.605469 C 136.058594 182.128906 136.511719 181.632812 136.933594 181.117188 C 137.359375 180.597656 137.757812 180.058594 138.132812 179.503906 C 138.503906 178.945312 138.847656 178.371094 139.164062 177.78125 C 139.480469 177.1875 139.765625 176.585938 140.023438 175.964844 C 140.277344 175.34375 140.503906 174.714844 140.699219 174.074219 C 140.894531 173.433594 141.054688 172.785156 141.1875 172.125 C 141.316406 171.46875 141.417969 170.804688 141.480469 170.140625 C 141.546875 169.472656 141.582031 168.804688 141.582031 168.132812 C 141.582031 167.464844 141.546875 166.792969 141.480469 166.128906 C 141.417969 165.460938 141.316406 164.796875 141.1875 164.140625 C 141.054688 163.484375 140.894531 162.835938 140.699219 162.191406 C 140.503906 161.550781 140.277344 160.921875 140.023438 160.300781 C 139.765625 159.683594 139.480469 159.078125 139.164062 158.488281 C 138.847656 157.894531 138.503906 157.320312 138.132812 156.765625 C 137.757812 156.207031 137.359375 155.667969 136.933594 155.152344 C 136.511719 154.632812 136.0625 154.136719 135.585938 153.664062 C 135.113281 153.191406 134.617188 152.738281 134.097656 152.316406 C 133.582031 151.890625 133.042969 151.492188 132.484375 151.117188 C 131.929688 150.746094 131.355469 150.402344 130.761719 150.085938 C 130.171875 149.769531 129.566406 149.484375 128.949219 149.226562 C 128.328125 148.972656 127.699219 148.746094 127.058594 148.550781 C 126.414062 148.355469 125.765625 148.195312 125.109375 148.0625 C 124.453125 147.933594 123.789062 147.832031 123.121094 147.769531 C 122.457031 147.703125 121.785156 147.667969 121.117188 147.667969 Z M 121.117188 147.667969 " fill-opacity="1" fill-rule="evenodd"/></g></svg>
