<svg xmlns="http://www.w3.org/2000/svg" xmlns:xlink="http://www.w3.org/1999/xlink" width="500" zoomAndPan="magnify" viewBox="0 0 375 374.999991" height="500" preserveAspectRatio="xMidYMid meet" version="1.0"><path fill="#ffffff" d="M 358.007812 169.390625 L 297.386719 77.328125 C 296.1875 75.507812 293.707031 75.070312 291.960938 76.371094 L 278.300781 86.535156 C 276.6875 87.734375 276.292969 89.984375 277.398438 91.660156 L 338.308594 184.039062 C 339.527344 185.886719 342.066406 186.300781 343.808594 184.9375 L 357.179688 174.457031 C 358.734375 173.242188 359.09375 171.039062 358.007812 169.390625 Z M 358.007812 169.390625 " fill-opacity="1" fill-rule="nonzero"/><path fill="#ffffff" d="M 229.277344 105.898438 C 228.953125 105.789062 212.089844 99.144531 196.886719 104.417969 C 181.324219 109.761719 171.285156 112.46875 163.988281 114.457031 C 155 116.875 150.484375 118.066406 144.921875 121.824219 C 140.085938 125.035 136.835938 130.199219 132.683594 136.699219 C 129.289062 142.082031 125.421875 148.148438 119.71875 154.757812 C 120.511719 155.40625 121.742188 156.273438 123.4375 157.140625 C 133.296875 162.304688 145.789062 161.074219 155.324219 154.105469 C 159.1875 151.253906 163.125 147.714844 167.023438 143.5625 C 168.105469 142.117188 173.921875 135.113281 182.550781 137.890625 C 185.730469 138.941406 192.625 139.121094 201.472656 138.363281 C 204.867188 138.074219 208.335938 138.941406 211.222656 140.816406 L 294.207031 195.34375 C 296.082031 196.574219 297.78125 197.980469 299.296875 199.496094 C 311.394531 196.175781 323.636719 185.488281 328.257812 181.117188 L 279.292969 106.835938 C 271.890625 108.605469 249.03125 112.976562 229.277344 105.898438 Z M 229.277344 105.898438 " fill-opacity="1" fill-rule="nonzero"/><path fill="#ffffff" d="M 161.355469 259.65625 C 157.960938 259.65625 154.601562 261.175781 152.328125 264.027344 L 140.265625 279.734375 C 136.222656 285.042969 137.558594 292.773438 143.335938 296.382812 C 148.390625 299.523438 155.105469 297.933594 158.71875 293.242188 L 170.09375 278.472656 C 173.882812 273.523438 173.449219 266.230469 168.613281 262.257812 C 166.480469 260.488281 163.917969 259.65625 161.355469 259.65625 Z M 161.355469 259.65625 " fill-opacity="1" fill-rule="nonzero"/><path fill="#ffffff" d="M 147.019531 259.839844 L 152.507812 252.722656 C 154.277344 250.414062 155.433594 247.597656 155.394531 244.707031 C 155.394531 240.734375 153.589844 237.125 150.519531 234.777344 C 148.316406 233.082031 145.644531 232.179688 142.902344 232.179688 C 142.359375 232.179688 141.816406 232.214844 141.242188 232.285156 C 137.953125 232.71875 134.992188 234.417969 132.972656 237.050781 L 110.4375 266.300781 C 108.414062 268.9375 107.550781 272.222656 107.984375 275.546875 C 108.414062 278.867188 110.113281 281.792969 112.75 283.851562 C 115.820312 286.199219 119.789062 287.03125 123.617188 286.019531 C 126.433594 285.296875 128.855469 283.453125 130.625 281.144531 L 134.8125 275.691406 C 134.847656 275.65625 134.886719 275.582031 134.921875 275.546875 L 146.910156 259.945312 C 146.945312 259.910156 146.980469 259.875 147.019531 259.839844 Z M 147.019531 259.839844 " fill-opacity="1" fill-rule="nonzero"/><path fill="#ffffff" d="M 127.589844 232.898438 L 130.804688 228.746094 C 134.992188 223.292969 134.488281 215.351562 129.179688 210.980469 C 126.867188 209.066406 124.050781 208.128906 121.234375 208.128906 C 117.480469 208.128906 113.761719 209.789062 111.304688 213.003906 L 83.894531 248.644531 C 79.960938 253.773438 80.285156 261.898438 85.160156 266.15625 C 88.664062 269.261719 93.539062 270.167969 98.089844 268.398438 C 100.253906 267.566406 102.097656 266.011719 103.539062 264.171875 L 105.09375 262.1875 L 105.09375 262.148438 L 127.589844 232.9375 Z M 127.589844 232.898438 " fill-opacity="1" fill-rule="nonzero"/><path fill="#ffffff" d="M 99.171875 217.625 C 100.941406 215.3125 102.097656 212.496094 102.097656 209.609375 C 102.058594 205.636719 100.253906 202.023438 97.183594 199.679688 C 94.984375 197.980469 92.308594 197.078125 89.566406 197.078125 C 89.097656 197.078125 88.589844 197.113281 88.085938 197.148438 C 84.546875 197.582031 81.441406 199.605469 79.273438 202.421875 C 75.484375 207.332031 67.320312 217.914062 62.484375 224.234375 C 58.546875 229.359375 58.90625 237.449219 63.746094 241.710938 C 67.285156 244.816406 72.125 245.71875 76.675781 243.984375 C 78.839844 243.15625 80.683594 241.640625 82.128906 239.796875 C 85.773438 235.03125 95.34375 222.609375 99.171875 217.625 Z M 99.171875 217.625 " fill-opacity="1" fill-rule="nonzero"/><path fill="#ffffff" d="M 290.484375 200.976562 L 207.503906 146.488281 C 205.878906 145.441406 203.929688 144.933594 202.050781 145.113281 C 195.082031 145.691406 185.65625 146.054688 180.457031 144.355469 C 175.796875 142.839844 172.441406 147.605469 172.402344 147.640625 C 172.332031 147.785156 172.222656 147.929688 172.113281 148.039062 C 167.890625 152.554688 163.59375 156.417969 159.332031 159.558594 C 147.738281 168.082031 132.429688 169.488281 120.296875 163.171875 C 117.949219 161.941406 115.960938 160.570312 114.410156 159.125 C 112.0625 156.921875 111.917969 153.347656 114.050781 150.929688 C 119.71875 144.464844 123.582031 138.398438 126.976562 133.054688 C 131.058594 126.625 134.632812 121.066406 139.941406 117.058594 C 122.316406 114.457031 104.40625 106.511719 97.691406 103.296875 L 46.269531 181.261719 C 49.410156 186.246094 58.691406 200.472656 66.742188 207.585938 L 73.785156 198.414062 C 80.175781 190.144531 92.058594 187.796875 100.617188 193.757812 C 104.839844 196.71875 107.621094 201.121094 108.523438 206.140625 C 115.3125 200.183594 125.570312 199.640625 133.007812 205.347656 C 137.085938 208.488281 139.6875 213.039062 140.375 218.167969 C 140.699219 220.695312 140.519531 223.222656 139.867188 225.640625 C 140.046875 225.605469 140.230469 225.570312 140.375 225.570312 C 145.5 224.882812 150.558594 226.253906 154.636719 229.398438 C 158.71875 232.539062 161.355469 237.089844 162.003906 242.179688 C 162.507812 245.898438 161.894531 249.621094 160.34375 252.90625 C 166.191406 252.582031 172.222656 255 176.269531 260.597656 C 181 267.0625 180.566406 275.945312 175.691406 282.300781 L 175.507812 282.550781 L 194.503906 294.613281 C 197.25 296.347656 204.324219 300.175781 210.863281 298.621094 C 214.183594 297.828125 216.785156 295.769531 218.878906 292.300781 C 220.648438 289.378906 220.035156 285.730469 218.804688 283.023438 C 218.046875 281.359375 216.820312 279.953125 215.265625 278.976562 L 184.429688 259.367188 C 182.875 258.394531 182.40625 256.300781 183.382812 254.710938 C 184.394531 253.121094 186.488281 252.652344 188.074219 253.664062 L 222.273438 275.402344 C 225.015625 277.136719 232.09375 281 238.632812 279.410156 C 241.953125 278.617188 244.589844 276.558594 246.648438 273.089844 C 250.113281 267.351562 247.621094 261.535156 246.394531 259.296875 C 244.734375 256.300781 242.207031 254.277344 238.414062 251.785156 L 204.109375 229.324219 C 202.519531 228.3125 202.085938 226.21875 203.132812 224.628906 C 204.144531 223.078125 206.238281 222.644531 207.792969 223.65625 L 242.132812 246.117188 L 242.171875 246.117188 L 252.390625 252.832031 C 257.699219 256.695312 263.257812 258.320312 267.773438 257.417969 C 271.382812 256.695312 274.378906 254.351562 276.726562 250.484375 C 279.109375 246.515625 278.964844 242.070312 276.332031 237.304688 C 274.597656 234.164062 271.890625 231.273438 268.457031 229.035156 C 268.351562 228.964844 268.3125 228.890625 268.242188 228.820312 L 217.867188 195.886719 C 216.316406 194.875 215.882812 192.746094 216.890625 191.191406 C 217.941406 189.640625 220.035156 189.207031 221.585938 190.21875 L 274.417969 224.773438 C 279.726562 228.675781 285.285156 230.300781 289.835938 229.359375 C 293.445312 228.640625 296.445312 226.328125 298.753906 222.429688 C 301.140625 218.457031 301.03125 214.050781 298.394531 209.246094 C 296.660156 206.105469 293.917969 203.253906 290.484375 200.976562 Z M 290.484375 200.976562 " fill-opacity="1" fill-rule="nonzero"/><path fill="#ffffff" d="M 96.578125 86.40625 L 83.765625 76.160156 C 82.03125 74.773438 79.480469 75.167969 78.246094 77.015625 L 16.65625 169.417969 C 15.558594 171.066406 15.914062 173.285156 17.476562 174.503906 L 30.828125 184.941406 C 32.570312 186.304688 35.105469 185.890625 36.324219 184.042969 L 97.375 91.449219 C 98.453125 89.816406 98.109375 87.628906 96.578125 86.40625 Z M 96.578125 86.40625 " fill-opacity="1" fill-rule="nonzero"/></svg>
