<svg xmlns="http://www.w3.org/2000/svg" xmlns:xlink="http://www.w3.org/1999/xlink" width="500" zoomAndPan="magnify" viewBox="0 0 375 374.999991" height="500" preserveAspectRatio="xMidYMid meet" version="1.0"><path fill="#000000" d="M 357.867188 169.265625 L 297.273438 77.324219 C 296.074219 75.507812 293.59375 75.070312 291.847656 76.367188 L 278.191406 86.519531 C 276.582031 87.71875 276.1875 89.964844 277.292969 91.636719 L 338.175781 183.890625 C 339.394531 185.738281 341.929688 186.152344 343.671875 184.789062 L 357.042969 174.324219 C 358.59375 173.109375 358.953125 170.910156 357.867188 169.265625 Z M 357.867188 169.265625 " fill-opacity="1" fill-rule="nonzero"/><path fill="#000000" d="M 229.191406 105.855469 C 228.867188 105.746094 212.007812 99.113281 196.8125 104.378906 C 181.253906 109.714844 171.222656 112.417969 163.929688 114.402344 C 154.941406 116.820312 150.429688 118.007812 144.871094 121.757812 C 140.035156 124.96875 136.785156 130.125 132.632812 136.617188 C 129.242188 141.988281 125.378906 148.046875 119.675781 154.648438 C 120.46875 155.296875 121.695312 156.164062 123.394531 157.027344 C 133.246094 162.183594 145.738281 160.957031 155.265625 154 C 159.128906 151.148438 163.0625 147.617188 166.960938 143.46875 C 168.042969 142.027344 173.855469 135.03125 182.484375 137.808594 C 185.660156 138.851562 192.554688 139.03125 201.398438 138.277344 C 204.789062 137.988281 208.253906 138.851562 211.144531 140.726562 L 294.089844 195.183594 C 295.96875 196.40625 297.664062 197.8125 299.179688 199.328125 C 311.273438 196.011719 323.507812 185.335938 328.128906 180.972656 L 279.183594 106.792969 C 271.785156 108.558594 248.933594 112.925781 229.191406 105.855469 Z M 229.191406 105.855469 " fill-opacity="1" fill-rule="nonzero"/><path fill="#000000" d="M 161.292969 259.410156 C 157.902344 259.410156 154.542969 260.921875 152.269531 263.773438 L 140.214844 279.460938 C 136.171875 284.761719 137.507812 292.476562 143.28125 296.085938 C 148.335938 299.222656 155.050781 297.632812 158.660156 292.945312 L 170.03125 278.195312 C 173.820312 273.257812 173.386719 265.972656 168.550781 262.003906 C 166.421875 260.238281 163.855469 259.410156 161.292969 259.410156 Z M 161.292969 259.410156 " fill-opacity="1" fill-rule="nonzero"/><path fill="#000000" d="M 146.964844 259.589844 L 152.449219 252.484375 C 154.21875 250.175781 155.375 247.363281 155.339844 244.480469 C 155.339844 240.511719 153.535156 236.90625 150.464844 234.5625 C 148.265625 232.867188 145.59375 231.964844 142.847656 231.964844 C 142.308594 231.964844 141.765625 232 141.1875 232.074219 C 137.90625 232.507812 134.945312 234.203125 132.921875 236.832031 L 110.398438 266.042969 C 108.378906 268.675781 107.511719 271.957031 107.945312 275.277344 C 108.378906 278.59375 110.074219 281.515625 112.710938 283.570312 C 115.777344 285.914062 119.746094 286.742188 123.574219 285.734375 C 126.390625 285.011719 128.808594 283.171875 130.578125 280.867188 L 134.765625 275.421875 C 134.800781 275.382812 134.835938 275.3125 134.871094 275.277344 L 146.855469 259.695312 C 146.890625 259.660156 146.929688 259.625 146.964844 259.589844 Z M 146.964844 259.589844 " fill-opacity="1" fill-rule="nonzero"/><path fill="#000000" d="M 127.542969 232.6875 L 130.757812 228.539062 C 134.945312 223.09375 134.4375 215.160156 129.132812 210.796875 C 126.824219 208.886719 124.007812 207.949219 121.191406 207.949219 C 117.4375 207.949219 113.71875 209.605469 111.265625 212.816406 L 83.867188 248.410156 C 79.933594 253.53125 80.257812 261.644531 85.132812 265.898438 C 88.632812 269 93.507812 269.902344 98.054688 268.136719 C 100.21875 267.304688 102.0625 265.753906 103.503906 263.917969 L 105.058594 261.933594 L 105.058594 261.898438 L 127.542969 232.722656 Z M 127.542969 232.6875 " fill-opacity="1" fill-rule="nonzero"/><path fill="#000000" d="M 99.136719 217.433594 C 100.90625 215.125 102.0625 212.3125 102.0625 209.425781 C 102.023438 205.460938 100.21875 201.851562 97.152344 199.507812 C 94.949219 197.8125 92.277344 196.914062 89.535156 196.914062 C 89.066406 196.914062 88.5625 196.949219 88.054688 196.984375 C 84.519531 197.417969 81.414062 199.4375 79.25 202.25 C 75.457031 207.15625 67.300781 217.722656 62.464844 224.03125 C 58.53125 229.152344 58.890625 237.230469 63.726562 241.484375 C 67.265625 244.585938 72.101562 245.488281 76.648438 243.757812 C 78.816406 242.929688 80.65625 241.414062 82.101562 239.574219 C 85.746094 234.8125 95.3125 222.410156 99.136719 217.433594 Z M 99.136719 217.433594 " fill-opacity="1" fill-rule="nonzero"/><path fill="#000000" d="M 290.375 200.808594 L 207.425781 146.390625 C 205.800781 145.34375 203.851562 144.839844 201.976562 145.019531 C 195.007812 145.597656 185.585938 145.957031 180.390625 144.261719 C 175.734375 142.746094 172.375 147.507812 172.339844 147.542969 C 172.265625 147.6875 172.160156 147.832031 172.050781 147.941406 C 167.828125 152.449219 163.53125 156.308594 159.273438 159.445312 C 147.6875 167.953125 132.382812 169.359375 120.253906 163.050781 C 117.90625 161.824219 115.921875 160.453125 114.371094 159.011719 C 112.023438 156.8125 111.878906 153.242188 114.007812 150.824219 C 119.675781 144.371094 123.539062 138.3125 126.929688 132.972656 C 131.011719 126.554688 134.582031 121 139.890625 117 C 122.273438 114.402344 104.371094 106.46875 97.65625 103.257812 L 46.257812 181.117188 C 49.398438 186.09375 58.671875 200.300781 66.722656 207.40625 L 73.761719 198.246094 C 80.152344 189.988281 92.027344 187.644531 100.582031 193.59375 C 104.804688 196.550781 107.582031 200.953125 108.484375 205.964844 C 115.273438 200.015625 125.523438 199.472656 132.960938 205.171875 C 137.039062 208.308594 139.636719 212.851562 140.324219 217.972656 C 140.648438 220.496094 140.46875 223.023438 139.816406 225.4375 C 139.996094 225.402344 140.179688 225.367188 140.324219 225.367188 C 145.449219 224.679688 150.5 226.050781 154.582031 229.1875 C 158.660156 232.324219 161.292969 236.871094 161.945312 241.953125 C 162.449219 245.667969 161.835938 249.382812 160.285156 252.664062 C 166.132812 252.339844 172.160156 254.757812 176.203125 260.347656 C 180.929688 266.800781 180.496094 275.671875 175.625 282.019531 L 175.445312 282.273438 L 194.429688 294.316406 C 197.175781 296.046875 204.25 299.871094 210.78125 298.320312 C 214.101562 297.527344 216.703125 295.472656 218.796875 292.007812 C 220.5625 289.089844 219.949219 285.445312 218.722656 282.742188 C 217.964844 281.082031 216.738281 279.675781 215.1875 278.703125 L 184.359375 259.121094 C 182.808594 258.144531 182.339844 256.054688 183.3125 254.46875 C 184.324219 252.882812 186.417969 252.414062 188.003906 253.421875 L 222.1875 275.132812 C 224.933594 276.863281 232.007812 280.722656 238.539062 279.132812 C 241.859375 278.339844 244.496094 276.285156 246.554688 272.824219 C 250.019531 267.089844 247.527344 261.285156 246.300781 259.046875 C 244.640625 256.054688 242.113281 254.035156 238.324219 251.546875 L 204.03125 229.117188 C 202.445312 228.105469 202.011719 226.015625 203.058594 224.429688 C 204.066406 222.878906 206.160156 222.445312 207.714844 223.453125 L 242.042969 245.886719 L 242.078125 245.886719 L 252.292969 252.59375 C 257.597656 256.453125 263.15625 258.074219 267.667969 257.171875 C 271.277344 256.453125 274.273438 254.109375 276.621094 250.25 C 279.003906 246.28125 278.859375 241.847656 276.222656 237.085938 C 274.492188 233.949219 271.785156 231.0625 268.355469 228.828125 C 268.246094 228.757812 268.210938 228.683594 268.136719 228.613281 L 217.785156 195.722656 C 216.234375 194.714844 215.800781 192.585938 216.808594 191.035156 C 217.855469 189.484375 219.949219 189.050781 221.503906 190.0625 L 274.3125 224.574219 C 279.617188 228.46875 285.175781 230.089844 289.722656 229.152344 C 293.332031 228.429688 296.328125 226.125 298.640625 222.230469 C 301.023438 218.261719 300.914062 213.863281 298.277344 209.066406 C 296.546875 205.929688 293.804688 203.078125 290.375 200.808594 Z M 290.375 200.808594 " fill-opacity="1" fill-rule="nonzero"/><path fill="#000000" d="M 96.546875 86.390625 L 83.738281 76.15625 C 82.003906 74.769531 79.453125 75.167969 78.222656 77.011719 L 16.65625 169.292969 C 15.558594 170.9375 15.914062 173.152344 17.476562 174.371094 L 30.820312 184.792969 C 32.5625 186.15625 35.097656 185.742188 36.316406 183.894531 L 97.34375 91.425781 C 98.421875 89.796875 98.074219 87.609375 96.546875 86.390625 Z M 96.546875 86.390625 " fill-opacity="1" fill-rule="nonzero"/></svg>
