<svg xmlns="http://www.w3.org/2000/svg" xmlns:xlink="http://www.w3.org/1999/xlink" width="500" zoomAndPan="magnify" viewBox="0 0 375 374.999991" height="500" preserveAspectRatio="xMidYMid meet" version="1.0"><defs><clipPath id="4711631408"><path d="M 34.636719 44 L 340.636719 44 L 340.636719 331.25 L 34.636719 331.25 Z M 34.636719 44 " clip-rule="nonzero"/></clipPath></defs><g clip-path="url(#4711631408)"><path fill="#1a1a1a" d="M 340.421875 331.242188 L 303.96875 331.242188 L 303.96875 289.644531 L 272.765625 274.628906 L 272.765625 331.242188 L 265.285156 331.242188 L 265.285156 271.019531 L 234.066406 255.984375 L 234.066406 331.242188 L 160.132812 331.242188 L 160.132812 185.628906 L 329.898438 283.628906 L 329.898438 323.761719 L 340.421875 323.761719 Z M 242.699219 225.371094 L 242.699219 83.0625 L 282.40625 105.984375 L 294.007812 112.6875 L 294.007812 254.996094 Z M 89.4375 141.5 L 80.3125 136.191406 L 55.109375 150.75 L 55.109375 234.019531 L 89.4375 214.210938 Z M 67.382812 158.992188 C 67.382812 156.921875 69.0625 155.257812 71.132812 155.257812 C 73.203125 155.257812 74.882812 156.921875 74.882812 158.992188 L 74.882812 213.574219 C 74.882812 215.640625 73.203125 217.320312 71.132812 217.320312 C 69.0625 217.320312 67.382812 215.640625 67.382812 213.574219 Z M 96.300781 210.246094 L 96.300781 87.625 L 171.84375 44.007812 L 171.84375 184.460938 L 156.402344 175.546875 Z M 179.324219 188.777344 L 179.324219 46.46875 L 235.21875 78.746094 L 235.21875 221.054688 Z M 116.179688 190.878906 C 114.394531 191.921875 112.113281 191.304688 111.070312 189.519531 C 110.042969 187.75 110.644531 185.449219 112.433594 184.425781 L 119.753906 180.195312 C 121.539062 179.171875 123.824219 179.773438 124.847656 181.558594 C 125.890625 183.34375 125.273438 185.628906 123.484375 186.671875 Z M 153.890625 169.105469 C 152.105469 170.152344 149.824219 169.53125 148.78125 167.746094 C 147.753906 165.976562 148.355469 163.675781 150.140625 162.652344 L 157.464844 158.425781 C 159.25 157.398438 161.53125 158 162.558594 159.785156 C 163.601562 161.574219 162.984375 163.855469 161.195312 164.898438 Z M 116.179688 169.371094 C 114.394531 170.398438 112.113281 169.796875 111.070312 168.011719 C 110.042969 166.222656 110.644531 163.941406 112.433594 162.898438 L 119.753906 158.6875 C 121.539062 157.644531 123.824219 158.265625 124.847656 160.050781 C 125.890625 161.820312 125.273438 164.121094 123.484375 165.144531 Z M 153.890625 147.601562 C 152.105469 148.625 149.824219 148.023438 148.78125 146.238281 C 147.753906 144.453125 148.355469 142.171875 150.140625 141.125 L 157.464844 136.917969 C 159.25 135.875 161.53125 136.492188 162.558594 138.261719 C 163.601562 140.046875 162.984375 142.347656 161.195312 143.375 Z M 116.179688 147.847656 C 114.394531 148.890625 112.113281 148.273438 111.070312 146.484375 C 110.042969 144.699219 110.644531 142.417969 112.433594 141.390625 L 119.753906 137.164062 C 121.539062 136.140625 123.824219 136.742188 124.847656 138.527344 C 125.890625 140.3125 125.273438 142.59375 123.484375 143.640625 Z M 153.890625 126.074219 C 152.105469 127.117188 149.824219 126.5 148.78125 124.714844 C 147.753906 122.925781 148.355469 120.644531 150.140625 119.621094 L 157.464844 115.394531 C 159.25 114.367188 161.53125 114.96875 162.558594 116.753906 C 163.601562 118.542969 162.984375 120.824219 161.195312 121.847656 Z M 116.179688 126.339844 C 114.394531 127.367188 112.113281 126.765625 111.070312 124.980469 C 110.042969 123.191406 110.644531 120.910156 112.433594 119.867188 L 119.753906 115.65625 C 121.539062 114.613281 123.824219 115.214844 124.847656 117.003906 C 125.890625 118.789062 125.273438 121.085938 123.484375 122.113281 Z M 153.890625 104.566406 C 152.105469 105.59375 149.824219 104.992188 148.78125 103.207031 C 147.753906 101.421875 148.355469 99.136719 150.140625 98.09375 L 157.464844 93.867188 C 159.25 92.84375 161.53125 93.441406 162.558594 95.230469 C 163.601562 97.015625 162.984375 99.296875 161.195312 100.339844 Z M 116.179688 104.816406 C 114.394531 105.859375 112.113281 105.238281 111.070312 103.453125 C 110.042969 101.667969 110.644531 99.386719 112.433594 98.359375 L 119.753906 94.132812 C 121.539062 93.105469 123.824219 93.707031 124.847656 95.496094 C 125.890625 97.28125 125.273438 99.5625 123.484375 100.589844 Z M 153.890625 83.042969 C 152.105469 84.085938 149.824219 83.46875 148.78125 81.679688 C 147.753906 79.894531 148.355469 77.613281 150.140625 76.585938 L 157.464844 72.359375 C 159.25 71.316406 161.53125 71.9375 162.558594 73.722656 C 163.601562 75.507812 162.984375 77.789062 161.195312 78.816406 Z M 152.652344 331.242188 L 34.855469 331.242188 L 34.855469 323.761719 L 45.378906 323.761719 L 45.378906 247.566406 L 152.652344 185.628906 Z M 52.242188 291.304688 L 52.242188 283.542969 L 145.789062 256.535156 L 145.789062 264.296875 Z M 52.242188 291.304688 " fill-opacity="1" fill-rule="evenodd"/></g></svg>
