<svg xmlns="http://www.w3.org/2000/svg" xmlns:xlink="http://www.w3.org/1999/xlink" width="500" zoomAndPan="magnify" viewBox="0 0 375 374.999991" height="500" preserveAspectRatio="xMidYMid meet" version="1.0"><defs><clipPath id="ffac4221a4"><path d="M 57.203125 41.710938 L 317.453125 41.710938 L 317.453125 333 L 57.203125 333 Z M 57.203125 41.710938 " clip-rule="nonzero"/></clipPath></defs><g clip-path="url(#ffac4221a4)"><path fill="#000000" d="M 145 133.371094 L 145.8125 132.957031 C 146.195312 132.753906 146.601562 132.621094 147.027344 132.550781 C 147.453125 132.480469 147.878906 132.480469 148.304688 132.546875 C 148.734375 132.613281 149.136719 132.746094 149.519531 132.945312 C 149.90625 133.144531 150.25 133.398438 150.550781 133.707031 L 153.007812 136.167969 L 155.464844 138.632812 C 155.773438 138.933594 156.027344 139.277344 156.226562 139.664062 C 156.421875 140.046875 156.554688 140.453125 156.625 140.878906 C 156.691406 141.308594 156.691406 141.734375 156.621094 142.160156 C 156.550781 142.589844 156.417969 142.992188 156.214844 143.378906 L 155.800781 144.195312 C 155.238281 145.261719 154.953125 146.402344 154.945312 147.613281 C 154.9375 148.824219 155.207031 149.964844 155.757812 151.042969 C 156.511719 152.566406 157.160156 154.132812 157.703125 155.742188 C 158.074219 156.894531 158.691406 157.890625 159.546875 158.742188 C 160.40625 159.589844 161.414062 160.195312 162.566406 160.550781 L 163.433594 160.832031 C 163.84375 160.960938 164.226562 161.152344 164.578125 161.40625 C 164.925781 161.660156 165.230469 161.960938 165.484375 162.308594 C 165.738281 162.660156 165.929688 163.039062 166.0625 163.453125 C 166.191406 163.863281 166.257812 164.285156 166.25 164.71875 L 166.25 171.695312 C 166.257812 172.128906 166.191406 172.550781 166.0625 172.964844 C 165.929688 173.375 165.738281 173.757812 165.484375 174.105469 C 165.230469 174.457031 164.925781 174.757812 164.578125 175.011719 C 164.226562 175.261719 163.84375 175.453125 163.433594 175.582031 L 162.566406 175.867188 C 161.414062 176.222656 160.40625 176.824219 159.546875 177.675781 C 158.691406 178.523438 158.074219 179.523438 157.703125 180.671875 C 157.160156 182.28125 156.511719 183.847656 155.757812 185.371094 C 155.207031 186.449219 154.9375 187.59375 154.945312 188.800781 C 154.953125 190.011719 155.238281 191.152344 155.800781 192.222656 L 156.214844 193.039062 C 156.417969 193.421875 156.550781 193.828125 156.621094 194.253906 C 156.691406 194.679688 156.691406 195.109375 156.625 195.535156 C 156.554688 195.960938 156.421875 196.367188 156.226562 196.753906 C 156.027344 197.136719 155.773438 197.480469 155.464844 197.785156 L 153.007812 200.246094 L 150.550781 202.710938 C 150.25 203.019531 149.90625 203.273438 149.519531 203.46875 C 149.136719 203.667969 148.734375 203.800781 148.304688 203.867188 C 147.878906 203.9375 147.453125 203.9375 147.027344 203.867188 C 146.601562 203.796875 146.195312 203.660156 145.8125 203.460938 L 145 203.042969 C 143.929688 202.480469 142.792969 202.191406 141.585938 202.1875 C 140.378906 202.179688 139.238281 202.449219 138.164062 203.003906 C 136.644531 203.757812 135.078125 204.40625 133.472656 204.953125 C 132.324219 205.324219 131.328125 205.9375 130.480469 206.800781 C 129.632812 207.660156 129.03125 208.667969 128.675781 209.824219 L 128.394531 210.691406 C 128.261719 211.105469 128.074219 211.484375 127.820312 211.835938 C 127.570312 212.1875 127.269531 212.492188 126.917969 212.746094 C 126.570312 213 126.1875 213.191406 125.777344 213.324219 C 125.367188 213.457031 124.945312 213.519531 124.511719 213.515625 L 117.554688 213.515625 C 117.121094 213.519531 116.703125 213.457031 116.289062 213.324219 C 115.878906 213.191406 115.5 213 115.148438 212.746094 C 114.800781 212.492188 114.5 212.1875 114.246094 211.835938 C 113.996094 211.484375 113.804688 211.105469 113.675781 210.691406 L 113.394531 209.824219 C 113.039062 208.667969 112.4375 207.660156 111.589844 206.800781 C 110.742188 205.9375 109.742188 205.324219 108.59375 204.953125 C 106.988281 204.40625 105.425781 203.753906 103.902344 203.003906 C 102.828125 202.449219 101.6875 202.179688 100.480469 202.1875 C 99.273438 202.191406 98.136719 202.480469 97.070312 203.042969 L 96.253906 203.460938 C 95.871094 203.660156 95.464844 203.796875 95.039062 203.867188 C 94.613281 203.9375 94.1875 203.9375 93.761719 203.867188 C 93.335938 203.800781 92.929688 203.667969 92.546875 203.46875 C 92.164062 203.273438 91.820312 203.019531 91.515625 202.710938 L 89.058594 200.246094 L 86.601562 197.785156 C 86.292969 197.480469 86.039062 197.136719 85.84375 196.753906 C 85.644531 196.367188 85.511719 195.960938 85.445312 195.535156 C 85.375 195.109375 85.378906 194.679688 85.445312 194.253906 C 85.515625 193.828125 85.652344 193.421875 85.851562 193.039062 L 86.265625 192.222656 C 86.832031 191.152344 87.117188 190.011719 87.125 188.804688 C 87.132812 187.59375 86.859375 186.449219 86.308594 185.375 C 85.558594 183.851562 84.910156 182.28125 84.363281 180.671875 C 83.992188 179.523438 83.378906 178.523438 82.519531 177.675781 C 81.660156 176.824219 80.65625 176.222656 79.503906 175.867188 L 78.632812 175.582031 C 78.222656 175.453125 77.839844 175.261719 77.492188 175.011719 C 77.140625 174.757812 76.835938 174.457031 76.585938 174.105469 C 76.332031 173.757812 76.136719 173.375 76.007812 172.964844 C 75.875 172.550781 75.8125 172.128906 75.816406 171.695312 L 75.816406 164.726562 C 75.8125 164.292969 75.875 163.871094 76.007812 163.457031 C 76.136719 163.046875 76.332031 162.664062 76.585938 162.316406 C 76.835938 161.964844 77.140625 161.664062 77.492188 161.410156 C 77.839844 161.160156 78.222656 160.96875 78.632812 160.839844 L 79.5 160.554688 C 80.65625 160.199219 81.660156 159.597656 82.519531 158.746094 C 83.378906 157.898438 83.992188 156.898438 84.363281 155.75 C 84.90625 154.140625 85.554688 152.574219 86.308594 151.050781 C 86.859375 149.972656 87.132812 148.828125 87.125 147.621094 C 87.117188 146.410156 86.832031 145.269531 86.265625 144.199219 L 85.851562 143.382812 C 85.652344 143 85.515625 142.59375 85.445312 142.167969 C 85.378906 141.742188 85.375 141.3125 85.445312 140.886719 C 85.511719 140.457031 85.644531 140.054688 85.84375 139.667969 C 86.039062 139.285156 86.292969 138.941406 86.601562 138.636719 L 89.058594 136.175781 L 91.515625 133.710938 C 91.820312 133.402344 92.164062 133.148438 92.546875 132.953125 C 92.929688 132.753906 93.335938 132.621094 93.761719 132.554688 C 94.1875 132.484375 94.613281 132.484375 95.039062 132.554688 C 95.464844 132.625 95.871094 132.761719 96.253906 132.960938 L 97.070312 133.378906 C 98.136719 133.941406 99.273438 134.230469 100.480469 134.234375 C 101.6875 134.242188 102.828125 133.972656 103.902344 133.417969 C 105.425781 132.667969 106.988281 132.015625 108.59375 131.46875 C 109.742188 131.097656 110.742188 130.484375 111.589844 129.621094 C 112.4375 128.761719 113.039062 127.753906 113.394531 126.601562 L 113.675781 125.730469 C 113.804688 125.316406 113.996094 124.9375 114.246094 124.585938 C 114.5 124.234375 114.800781 123.929688 115.148438 123.675781 C 115.5 123.421875 115.878906 123.230469 116.289062 123.097656 C 116.703125 122.964844 117.121094 122.902344 117.554688 122.90625 L 124.511719 122.90625 C 124.945312 122.902344 125.367188 122.964844 125.777344 123.097656 C 126.1875 123.230469 126.566406 123.421875 126.917969 123.675781 C 127.265625 123.929688 127.566406 124.234375 127.820312 124.585938 C 128.070312 124.9375 128.261719 125.316406 128.390625 125.730469 L 128.671875 126.601562 C 129.027344 127.753906 129.628906 128.761719 130.476562 129.621094 C 131.324219 130.484375 132.324219 131.097656 133.472656 131.472656 C 135.078125 132.015625 136.640625 132.667969 138.164062 133.417969 C 139.238281 133.972656 140.378906 134.242188 141.585938 134.234375 C 142.792969 134.230469 143.929688 133.941406 144.996094 133.378906 Z M 183.460938 283.554688 C 183.078125 283.472656 182.726562 283.320312 182.402344 283.097656 C 182.082031 282.871094 181.8125 282.59375 181.601562 282.265625 C 181.390625 281.933594 181.25 281.578125 181.179688 281.191406 C 181.113281 280.804688 181.121094 280.417969 181.203125 280.035156 C 181.289062 279.652344 181.441406 279.296875 181.667969 278.976562 C 181.894531 278.65625 182.171875 278.390625 182.503906 278.179688 C 182.832031 277.96875 183.191406 277.832031 183.578125 277.761719 C 183.964844 277.695312 184.347656 277.707031 184.730469 277.792969 L 238.960938 289.8125 L 238.960938 289.804688 C 239.054688 289.824219 239.144531 289.84375 239.234375 289.871094 C 239.886719 290 240.546875 290.066406 241.214844 290.066406 C 241.882812 290.070312 242.542969 290.007812 243.199219 289.882812 C 243.855469 289.761719 244.492188 289.574219 245.113281 289.328125 C 245.734375 289.082031 246.324219 288.78125 246.886719 288.421875 C 247.449219 288.0625 247.972656 287.652344 248.457031 287.195312 C 248.941406 286.734375 249.378906 286.234375 249.769531 285.691406 C 250.15625 285.148438 250.492188 284.574219 250.773438 283.96875 C 251.054688 283.363281 251.273438 282.734375 251.433594 282.085938 C 251.457031 281.933594 251.488281 281.78125 251.535156 281.632812 C 251.777344 280.410156 251.796875 279.183594 251.597656 277.953125 C 251.574219 277.84375 251.554688 277.734375 251.539062 277.625 C 251.285156 276.3125 250.796875 275.097656 250.082031 273.972656 C 249.359375 272.832031 248.453125 271.871094 247.359375 271.085938 C 246.265625 270.296875 245.066406 269.742188 243.761719 269.421875 C 243.597656 269.398438 243.433594 269.363281 243.277344 269.3125 L 198.554688 259.398438 C 198.242188 259.328125 197.949219 259.214844 197.675781 259.050781 L 162.1875 237.832031 C 160.8125 236.980469 159.359375 236.289062 157.832031 235.753906 C 156.304688 235.222656 154.738281 234.859375 153.132812 234.667969 C 151.527344 234.476562 149.917969 234.460938 148.308594 234.621094 C 146.699219 234.78125 145.128906 235.113281 143.589844 235.617188 L 94.648438 250.820312 L 106.53125 300.921875 L 108.269531 300.4375 C 110.015625 299.925781 111.796875 299.585938 113.609375 299.425781 C 115.421875 299.261719 117.234375 299.273438 119.042969 299.464844 C 120.855469 299.660156 122.628906 300.023438 124.367188 300.5625 C 126.105469 301.101562 127.777344 301.804688 129.378906 302.671875 L 181.257812 329.820312 C 182.800781 330.664062 184.425781 331.3125 186.125 331.765625 C 187.824219 332.222656 189.550781 332.472656 191.3125 332.519531 C 193.070312 332.566406 194.808594 332.402344 196.53125 332.035156 C 198.25 331.667969 199.90625 331.101562 201.492188 330.339844 L 308.171875 281.339844 C 308.796875 280.953125 309.417969 280.53125 310.035156 280.070312 C 313.203125 277.71875 315.542969 274.832031 316.542969 271.722656 C 317.480469 268.796875 317.207031 265.585938 315.253906 262.363281 C 315.015625 261.972656 314.734375 261.554688 314.40625 261.109375 C 311.984375 257.855469 309.035156 256.308594 305.925781 255.9375 C 301.957031 255.464844 297.605469 256.816406 293.628906 259.011719 L 257.609375 278.914062 C 257.664062 280.242188 257.5625 281.558594 257.296875 282.863281 C 257.289062 282.933594 257.277344 283.007812 257.261719 283.078125 L 257.25 283.078125 L 257.238281 283.136719 C 257.007812 284.175781 256.675781 285.179688 256.25 286.152344 C 255.824219 287.125 255.308594 288.046875 254.703125 288.917969 C 254.097656 289.792969 253.414062 290.597656 252.652344 291.335938 C 251.890625 292.078125 251.066406 292.738281 250.175781 293.316406 C 249.285156 293.894531 248.351562 294.382812 247.367188 294.777344 C 246.382812 295.175781 245.371094 295.472656 244.328125 295.671875 C 243.285156 295.871094 242.234375 295.96875 241.175781 295.964844 C 240.113281 295.960938 239.0625 295.851562 238.023438 295.644531 C 237.953125 295.636719 237.878906 295.625 237.808594 295.609375 L 237.808594 295.597656 C 219.683594 291.664062 201.570312 287.566406 183.460938 283.554688 Z M 84.8125 244.753906 C 85.105469 244.683594 85.398438 244.671875 85.695312 244.71875 C 85.988281 244.765625 86.265625 244.867188 86.519531 245.023438 C 86.777344 245.183594 86.992188 245.382812 87.164062 245.625 C 87.339844 245.871094 87.464844 246.136719 87.53125 246.429688 L 102.625 310.054688 C 102.695312 310.34375 102.707031 310.640625 102.660156 310.9375 C 102.613281 311.234375 102.511719 311.507812 102.355469 311.765625 C 102.199219 312.019531 102 312.234375 101.753906 312.410156 C 101.511719 312.585938 101.246094 312.710938 100.953125 312.777344 L 75.167969 318.921875 C 74.878906 318.992188 74.585938 319.003906 74.289062 318.957031 C 73.992188 318.910156 73.71875 318.808594 73.460938 318.652344 C 73.207031 318.492188 72.992188 318.292969 72.816406 318.050781 C 72.640625 317.804688 72.519531 317.539062 72.449219 317.246094 L 57.359375 253.617188 C 57.289062 253.328125 57.277344 253.03125 57.324219 252.738281 C 57.371094 252.441406 57.472656 252.164062 57.628906 251.910156 C 57.785156 251.652344 57.984375 251.4375 58.226562 251.261719 C 58.46875 251.085938 58.738281 250.964844 59.027344 250.894531 Z M 280.546875 131.035156 L 281.785156 130.402344 C 282.367188 130.097656 282.984375 129.890625 283.632812 129.785156 C 284.28125 129.679688 284.925781 129.679688 285.574219 129.78125 C 286.222656 129.882812 286.839844 130.085469 287.421875 130.386719 C 288.007812 130.6875 288.527344 131.074219 288.988281 131.542969 L 292.726562 135.292969 L 296.46875 139.039062 C 296.9375 139.5 297.320312 140.023438 297.621094 140.605469 C 297.921875 141.191406 298.125 141.808594 298.226562 142.457031 C 298.328125 143.105469 298.328125 143.753906 298.222656 144.402344 C 298.113281 145.050781 297.910156 145.667969 297.605469 146.25 L 296.976562 147.492188 C 296.550781 148.292969 296.230469 149.132812 296.011719 150.011719 C 295.789062 150.890625 295.675781 151.785156 295.671875 152.691406 C 295.667969 153.597656 295.769531 154.492188 295.976562 155.375 C 296.1875 156.253906 296.5 157.097656 296.910156 157.90625 C 298.054688 160.222656 299.039062 162.601562 299.867188 165.050781 C 300.148438 165.910156 300.523438 166.730469 300.996094 167.5 C 301.472656 168.269531 302.03125 168.972656 302.671875 169.609375 C 303.316406 170.246094 304.023438 170.796875 304.800781 171.261719 C 305.578125 171.726562 306.394531 172.09375 307.261719 172.359375 L 308.578125 172.789062 C 309.203125 172.988281 309.785156 173.277344 310.316406 173.660156 C 310.851562 174.046875 311.308594 174.503906 311.695312 175.035156 C 312.082031 175.566406 312.375 176.148438 312.574219 176.773438 C 312.773438 177.398438 312.871094 178.042969 312.863281 178.699219 L 312.863281 189.296875 C 312.871094 189.957031 312.773438 190.597656 312.574219 191.222656 C 312.375 191.851562 312.082031 192.429688 311.695312 192.960938 C 311.308594 193.492188 310.851562 193.953125 310.316406 194.335938 C 309.785156 194.71875 309.203125 195.011719 308.578125 195.207031 L 307.261719 195.636719 C 306.398438 195.902344 305.578125 196.269531 304.800781 196.734375 C 304.027344 197.199219 303.316406 197.75 302.671875 198.386719 C 302.03125 199.023438 301.472656 199.726562 300.996094 200.5 C 300.523438 201.269531 300.148438 202.085938 299.871094 202.949219 C 299.042969 205.394531 298.054688 207.777344 296.914062 210.09375 C 296.5 210.898438 296.1875 211.742188 295.980469 212.625 C 295.769531 213.507812 295.667969 214.398438 295.671875 215.304688 C 295.679688 216.210938 295.792969 217.105469 296.011719 217.984375 C 296.234375 218.863281 296.554688 219.703125 296.976562 220.503906 L 297.609375 221.746094 C 297.910156 222.328125 298.117188 222.945312 298.222656 223.59375 C 298.328125 224.242188 298.332031 224.894531 298.226562 225.542969 C 298.125 226.191406 297.921875 226.808594 297.621094 227.394531 C 297.320312 227.976562 296.9375 228.5 296.46875 228.960938 L 292.726562 232.707031 L 288.988281 236.457031 C 288.527344 236.925781 288.007812 237.3125 287.421875 237.613281 C 286.839844 237.914062 286.222656 238.117188 285.574219 238.21875 C 284.925781 238.320312 284.28125 238.320312 283.632812 238.214844 C 282.984375 238.109375 282.367188 237.902344 281.785156 237.597656 L 280.546875 236.964844 C 279.75 236.542969 278.910156 236.21875 278.03125 236 C 277.15625 235.777344 276.265625 235.664062 275.359375 235.660156 C 274.453125 235.65625 273.5625 235.757812 272.683594 235.964844 C 271.800781 236.175781 270.960938 236.488281 270.15625 236.902344 C 267.84375 238.046875 265.464844 239.035156 263.023438 239.863281 C 262.164062 240.144531 261.347656 240.519531 260.578125 240.996094 C 259.808594 241.46875 259.105469 242.027344 258.472656 242.671875 C 257.835938 243.316406 257.285156 244.027344 256.824219 244.804688 C 256.359375 245.582031 255.992188 246.40625 255.726562 247.269531 L 255.296875 248.589844 C 255.101562 249.21875 254.8125 249.800781 254.429688 250.332031 C 254.046875 250.867188 253.589844 251.328125 253.058594 251.714844 C 252.527344 252.101562 251.949219 252.394531 251.324219 252.59375 C 250.695312 252.792969 250.054688 252.890625 249.398438 252.882812 L 238.820312 252.882812 C 238.164062 252.890625 237.523438 252.792969 236.898438 252.59375 C 236.273438 252.394531 235.695312 252.101562 235.164062 251.714844 C 234.632812 251.328125 234.175781 250.867188 233.792969 250.332031 C 233.410156 249.800781 233.121094 249.21875 232.921875 248.589844 L 232.496094 247.269531 C 232.230469 246.40625 231.863281 245.582031 231.398438 244.804688 C 230.933594 244.027344 230.386719 243.320312 229.75 242.675781 C 229.117188 242.03125 228.414062 241.46875 227.644531 240.996094 C 226.875 240.519531 226.058594 240.144531 225.199219 239.863281 C 222.757812 239.035156 220.378906 238.046875 218.066406 236.902344 C 217.261719 236.488281 216.421875 236.175781 215.539062 235.96875 C 214.660156 235.757812 213.769531 235.65625 212.863281 235.660156 C 211.957031 235.664062 211.066406 235.777344 210.191406 236 C 209.3125 236.21875 208.472656 236.542969 207.675781 236.964844 L 206.433594 237.597656 C 205.851562 237.902344 205.238281 238.109375 204.589844 238.214844 C 203.941406 238.320312 203.292969 238.320312 202.644531 238.21875 C 201.996094 238.117188 201.382812 237.914062 200.796875 237.613281 C 200.214844 237.3125 199.695312 236.925781 199.234375 236.457031 L 195.496094 232.710938 L 191.753906 228.960938 C 191.285156 228.5 190.902344 227.980469 190.601562 227.394531 C 190.300781 226.808594 190.097656 226.191406 189.996094 225.542969 C 189.890625 224.894531 189.894531 224.246094 190 223.59375 C 190.105469 222.945312 190.3125 222.332031 190.613281 221.746094 L 191.246094 220.507812 C 191.667969 219.703125 191.988281 218.863281 192.210938 217.984375 C 192.429688 217.105469 192.542969 216.214844 192.550781 215.308594 C 192.554688 214.402344 192.453125 213.507812 192.242188 212.625 C 192.03125 211.742188 191.722656 210.898438 191.308594 210.09375 C 190.164062 207.777344 189.179688 205.394531 188.351562 202.949219 C 188.074219 202.085938 187.695312 201.269531 187.222656 200.5 C 186.75 199.726562 186.191406 199.023438 185.546875 198.386719 C 184.902344 197.75 184.195312 197.199219 183.417969 196.734375 C 182.640625 196.269531 181.824219 195.902344 180.957031 195.636719 L 179.640625 195.207031 C 179.015625 195.011719 178.433594 194.71875 177.902344 194.335938 C 177.367188 193.953125 176.910156 193.492188 176.523438 192.960938 C 176.136719 192.429688 175.84375 191.851562 175.644531 191.222656 C 175.445312 190.597656 175.347656 189.957031 175.355469 189.296875 L 175.355469 178.703125 C 175.347656 178.042969 175.445312 177.402344 175.644531 176.777344 C 175.84375 176.148438 176.136719 175.570312 176.523438 175.039062 C 176.910156 174.503906 177.367188 174.046875 177.902344 173.664062 C 178.433594 173.28125 179.015625 172.988281 179.640625 172.792969 L 180.957031 172.363281 C 181.820312 172.097656 182.640625 171.730469 183.417969 171.265625 C 184.195312 170.800781 184.902344 170.25 185.546875 169.613281 C 186.191406 168.976562 186.75 168.273438 187.222656 167.503906 C 187.695312 166.730469 188.074219 165.914062 188.351562 165.050781 C 189.179688 162.605469 190.164062 160.222656 191.308594 157.910156 C 191.71875 157.101562 192.03125 156.257812 192.242188 155.375 C 192.449219 154.496094 192.554688 153.601562 192.546875 152.695312 C 192.542969 151.789062 192.429688 150.894531 192.207031 150.015625 C 191.988281 149.136719 191.667969 148.296875 191.246094 147.496094 L 190.613281 146.253906 C 190.308594 145.671875 190.105469 145.054688 190 144.40625 C 189.894531 143.757812 189.890625 143.105469 189.992188 142.457031 C 190.097656 141.808594 190.296875 141.191406 190.601562 140.605469 C 190.902344 140.023438 191.285156 139.5 191.753906 139.039062 L 195.492188 135.292969 L 199.234375 131.546875 C 199.695312 131.074219 200.214844 130.691406 200.796875 130.390625 C 201.382812 130.085938 201.996094 129.886719 202.644531 129.78125 C 203.292969 129.679688 203.941406 129.679688 204.589844 129.789062 C 205.234375 129.894531 205.851562 130.097656 206.433594 130.402344 L 207.671875 131.035156 C 208.472656 131.457031 209.308594 131.78125 210.1875 132 C 211.066406 132.222656 211.957031 132.335938 212.859375 132.339844 C 213.765625 132.347656 214.65625 132.242188 215.539062 132.035156 C 216.417969 131.824219 217.257812 131.511719 218.0625 131.097656 C 220.375 129.953125 222.753906 128.964844 225.195312 128.136719 C 226.054688 127.859375 226.871094 127.480469 227.640625 127.007812 C 228.410156 126.53125 229.113281 125.972656 229.75 125.328125 C 230.382812 124.683594 230.933594 123.972656 231.398438 123.195312 C 231.859375 122.417969 232.226562 121.597656 232.492188 120.730469 L 232.921875 119.410156 C 233.117188 118.78125 233.40625 118.203125 233.789062 117.667969 C 234.175781 117.132812 234.632812 116.671875 235.164062 116.285156 C 235.695312 115.898438 236.273438 115.605469 236.898438 115.40625 C 237.523438 115.207031 238.164062 115.109375 238.820312 115.117188 L 249.398438 115.117188 C 250.054688 115.109375 250.695312 115.207031 251.320312 115.40625 C 251.945312 115.605469 252.523438 115.898438 253.054688 116.285156 C 253.585938 116.671875 254.042969 117.132812 254.425781 117.667969 C 254.808594 118.203125 255.097656 118.78125 255.296875 119.410156 L 255.722656 120.730469 C 255.992188 121.597656 256.355469 122.417969 256.820312 123.195312 C 257.285156 123.972656 257.835938 124.683594 258.46875 125.328125 C 259.105469 125.96875 259.808594 126.53125 260.578125 127.003906 C 261.347656 127.480469 262.160156 127.855469 263.023438 128.132812 C 265.464844 128.964844 267.839844 129.953125 270.152344 131.097656 C 270.957031 131.511719 271.800781 131.820312 272.679688 132.03125 C 273.558594 132.242188 274.453125 132.34375 275.355469 132.339844 C 276.261719 132.332031 277.152344 132.21875 278.03125 132 C 278.90625 131.777344 279.746094 131.457031 280.546875 131.03125 Z M 244.109375 146.519531 C 242.886719 146.519531 241.664062 146.582031 240.445312 146.703125 C 239.226562 146.820312 238.015625 147.003906 236.8125 147.242188 C 235.609375 147.480469 234.425781 147.777344 233.25 148.136719 C 232.078125 148.492188 230.925781 148.90625 229.796875 149.375 C 228.664062 149.84375 227.558594 150.367188 226.476562 150.945312 C 225.394531 151.527344 224.347656 152.15625 223.328125 152.839844 C 222.308594 153.519531 221.328125 154.25 220.378906 155.027344 C 219.433594 155.808594 218.523438 156.632812 217.660156 157.5 C 216.792969 158.367188 215.972656 159.277344 215.195312 160.222656 C 214.417969 161.171875 213.6875 162.15625 213.007812 163.179688 C 212.324219 164.199219 211.695312 165.25 211.121094 166.332031 C 210.542969 167.417969 210.019531 168.523438 209.550781 169.660156 C 209.082031 170.792969 208.667969 171.945312 208.3125 173.121094 C 207.957031 174.296875 207.660156 175.484375 207.421875 176.691406 C 207.183594 177.894531 207.003906 179.105469 206.882812 180.328125 C 206.761719 181.550781 206.703125 182.773438 206.703125 184 C 206.703125 185.230469 206.761719 186.453125 206.882812 187.675781 C 207.003906 188.898438 207.183594 190.109375 207.421875 191.3125 C 207.660156 192.515625 207.957031 193.707031 208.3125 194.882812 C 208.667969 196.054688 209.082031 197.210938 209.550781 198.34375 C 210.019531 199.480469 210.542969 200.585938 211.121094 201.667969 C 211.695312 202.753906 212.324219 203.804688 213.007812 204.824219 C 213.6875 205.84375 214.417969 206.828125 215.195312 207.777344 C 215.972656 208.726562 216.792969 209.636719 217.660156 210.503906 C 218.523438 211.371094 219.433594 212.195312 220.378906 212.972656 C 221.324219 213.753906 222.308594 214.484375 223.328125 215.164062 C 224.347656 215.847656 225.394531 216.476562 226.476562 217.054688 C 227.558594 217.632812 228.664062 218.160156 229.796875 218.628906 C 230.925781 219.097656 232.078125 219.511719 233.25 219.867188 C 234.425781 220.222656 235.609375 220.523438 236.8125 220.761719 C 238.015625 221 239.226562 221.179688 240.445312 221.300781 C 241.664062 221.421875 242.886719 221.480469 244.109375 221.480469 C 245.335938 221.480469 246.558594 221.421875 247.777344 221.300781 C 248.996094 221.179688 250.207031 221 251.410156 220.761719 C 252.609375 220.523438 253.796875 220.222656 254.96875 219.867188 C 256.144531 219.511719 257.292969 219.097656 258.425781 218.628906 C 259.558594 218.160156 260.664062 217.632812 261.746094 217.054688 C 262.824219 216.476562 263.875 215.847656 264.894531 215.164062 C 265.914062 214.484375 266.894531 213.753906 267.84375 212.972656 C 268.789062 212.195312 269.695312 211.371094 270.5625 210.503906 C 271.429688 209.636719 272.25 208.726562 273.027344 207.777344 C 273.804688 206.828125 274.535156 205.84375 275.214844 204.824219 C 275.894531 203.804688 276.523438 202.75 277.101562 201.667969 C 277.679688 200.585938 278.203125 199.476562 278.671875 198.34375 C 279.140625 197.210938 279.554688 196.054688 279.910156 194.882812 C 280.265625 193.707031 280.5625 192.515625 280.800781 191.3125 C 281.039062 190.109375 281.21875 188.894531 281.339844 187.675781 C 281.460938 186.453125 281.519531 185.230469 281.519531 184 C 281.519531 182.773438 281.460938 181.550781 281.339844 180.328125 C 281.21875 179.105469 281.039062 177.894531 280.800781 176.6875 C 280.5625 175.484375 280.265625 174.296875 279.910156 173.121094 C 279.554688 171.945312 279.140625 170.792969 278.671875 169.65625 C 278.203125 168.523438 277.679688 167.414062 277.101562 166.332031 C 276.523438 165.25 275.894531 164.199219 275.214844 163.179688 C 274.535156 162.15625 273.804688 161.171875 273.027344 160.222656 C 272.25 159.273438 271.429688 158.367188 270.5625 157.5 C 269.695312 156.632812 268.789062 155.808594 267.84375 155.027344 C 266.894531 154.25 265.914062 153.519531 264.894531 152.835938 C 263.875 152.15625 262.824219 151.527344 261.746094 150.945312 C 260.664062 150.367188 259.558594 149.84375 258.425781 149.375 C 257.292969 148.90625 256.140625 148.492188 254.96875 148.136719 C 253.796875 147.777344 252.609375 147.480469 251.410156 147.242188 C 250.207031 147.003906 248.996094 146.820312 247.777344 146.703125 C 246.558594 146.582031 245.335938 146.519531 244.109375 146.519531 Z M 216.5 50.488281 C 215.601562 50.960938 214.648438 51.203125 213.636719 51.207031 C 212.625 51.214844 211.667969 50.984375 210.769531 50.523438 C 209.492188 49.890625 208.183594 49.347656 206.835938 48.890625 C 205.875 48.578125 205.039062 48.0625 204.328125 47.339844 C 203.617188 46.621094 203.113281 45.777344 202.8125 44.808594 L 202.578125 44.078125 C 202.472656 43.730469 202.3125 43.410156 202.101562 43.117188 C 201.890625 42.824219 201.636719 42.570312 201.34375 42.355469 C 201.050781 42.144531 200.730469 41.980469 200.386719 41.871094 C 200.042969 41.761719 199.691406 41.707031 199.328125 41.710938 L 193.496094 41.710938 C 193.132812 41.707031 192.78125 41.761719 192.433594 41.871094 C 192.089844 41.980469 191.773438 42.144531 191.480469 42.355469 C 191.1875 42.570312 190.933594 42.824219 190.722656 43.117188 C 190.511719 43.414062 190.351562 43.730469 190.242188 44.078125 L 190.007812 44.808594 C 189.710938 45.777344 189.207031 46.621094 188.496094 47.339844 C 187.785156 48.0625 186.949219 48.578125 185.984375 48.890625 C 184.640625 49.347656 183.328125 49.890625 182.054688 50.523438 C 181.152344 50.984375 180.199219 51.214844 179.183594 51.207031 C 178.171875 51.203125 177.21875 50.960938 176.324219 50.488281 L 175.640625 50.140625 C 175.320312 49.972656 174.980469 49.859375 174.625 49.800781 C 174.265625 49.742188 173.910156 49.742188 173.550781 49.796875 C 173.195312 49.855469 172.855469 49.964844 172.535156 50.132812 C 172.210938 50.296875 171.925781 50.511719 171.671875 50.769531 L 167.546875 54.902344 C 167.285156 55.15625 167.074219 55.445312 166.910156 55.765625 C 166.742188 56.089844 166.632812 56.429688 166.574219 56.789062 C 166.519531 57.144531 166.519531 57.503906 166.578125 57.863281 C 166.636719 58.21875 166.75 58.558594 166.917969 58.882812 L 167.265625 59.566406 C 167.738281 60.460938 167.976562 61.417969 167.984375 62.429688 C 167.988281 63.445312 167.761719 64.402344 167.300781 65.304688 C 166.667969 66.582031 166.125 67.898438 165.667969 69.246094 C 165.359375 70.210938 164.84375 71.046875 164.125 71.761719 C 163.402344 72.472656 162.5625 72.976562 161.59375 73.277344 L 160.867188 73.511719 C 160.523438 73.621094 160.203125 73.78125 159.910156 73.992188 C 159.617188 74.203125 159.363281 74.457031 159.148438 74.75 C 158.9375 75.042969 158.777344 75.363281 158.664062 75.707031 C 158.554688 76.050781 158.5 76.40625 158.503906 76.769531 L 158.503906 82.613281 C 158.5 82.976562 158.554688 83.328125 158.664062 83.675781 C 158.777344 84.019531 158.9375 84.339844 159.148438 84.632812 C 159.363281 84.925781 159.617188 85.179688 159.910156 85.390625 C 160.203125 85.601562 160.523438 85.761719 160.867188 85.871094 L 161.59375 86.105469 C 162.5625 86.402344 163.40625 86.910156 164.125 87.621094 C 164.84375 88.332031 165.359375 89.171875 165.671875 90.136719 C 166.128906 91.484375 166.671875 92.796875 167.300781 94.074219 C 167.761719 94.976562 167.988281 95.933594 167.984375 96.949219 C 167.976562 97.964844 167.738281 98.917969 167.265625 99.816406 L 166.917969 100.5 C 166.75 100.820312 166.636719 101.160156 166.578125 101.519531 C 166.519531 101.875 166.519531 102.234375 166.574219 102.59375 C 166.632812 102.949219 166.742188 103.292969 166.910156 103.613281 C 167.074219 103.9375 167.289062 104.222656 167.546875 104.476562 L 171.671875 108.609375 C 171.921875 108.867188 172.210938 109.082031 172.53125 109.246094 C 172.855469 109.414062 173.195312 109.523438 173.550781 109.582031 C 173.910156 109.636719 174.265625 109.636719 174.625 109.578125 C 174.980469 109.519531 175.320312 109.40625 175.640625 109.238281 L 176.324219 108.890625 C 177.21875 108.417969 178.171875 108.175781 179.183594 108.171875 C 180.195312 108.164062 181.152344 108.390625 182.054688 108.855469 C 183.328125 109.488281 184.640625 110.03125 185.984375 110.488281 C 186.949219 110.800781 187.785156 111.316406 188.496094 112.039062 C 189.207031 112.757812 189.710938 113.605469 190.007812 114.570312 L 190.242188 115.300781 C 190.351562 115.644531 190.511719 115.964844 190.722656 116.261719 C 190.933594 116.554688 191.183594 116.808594 191.476562 117.023438 C 191.769531 117.234375 192.089844 117.398438 192.433594 117.507812 C 192.777344 117.617188 193.132812 117.671875 193.492188 117.667969 L 199.328125 117.667969 C 199.6875 117.671875 200.042969 117.617188 200.386719 117.507812 C 200.730469 117.398438 201.050781 117.234375 201.34375 117.023438 C 201.636719 116.808594 201.886719 116.554688 202.097656 116.261719 C 202.308594 115.964844 202.46875 115.644531 202.578125 115.300781 L 202.8125 114.570312 C 203.109375 113.601562 203.613281 112.757812 204.324219 112.039062 C 205.035469 111.316406 205.871094 110.800781 206.835938 110.488281 C 208.179688 110.03125 209.492188 109.488281 210.765625 108.855469 C 211.667969 108.390625 212.625 108.164062 213.636719 108.171875 C 214.648438 108.175781 215.601562 108.417969 216.496094 108.890625 L 217.179688 109.238281 C 217.5 109.40625 217.839844 109.519531 218.195312 109.578125 C 218.554688 109.636719 218.910156 109.636719 219.269531 109.582031 C 219.625 109.523438 219.964844 109.414062 220.289062 109.246094 C 220.609375 109.082031 220.898438 108.867188 221.148438 108.609375 L 225.273438 104.476562 C 225.53125 104.222656 225.746094 103.9375 225.910156 103.613281 C 226.078125 103.292969 226.1875 102.949219 226.246094 102.59375 C 226.300781 102.234375 226.300781 101.875 226.242188 101.519531 C 226.183594 101.160156 226.070312 100.820312 225.902344 100.5 L 225.554688 99.816406 C 225.082031 98.917969 224.84375 97.964844 224.835938 96.949219 C 224.832031 95.933594 225.058594 94.976562 225.519531 94.074219 C 226.148438 92.796875 226.691406 91.484375 227.148438 90.136719 C 227.460938 89.171875 227.976562 88.332031 228.695312 87.621094 C 229.414062 86.910156 230.257812 86.402344 231.226562 86.105469 L 231.953125 85.871094 C 232.296875 85.761719 232.617188 85.601562 232.910156 85.390625 C 233.203125 85.175781 233.457031 84.925781 233.671875 84.632812 C 233.882812 84.339844 234.042969 84.019531 234.15625 83.671875 C 234.265625 83.328125 234.316406 82.972656 234.316406 82.613281 L 234.316406 76.769531 C 234.316406 76.40625 234.265625 76.050781 234.15625 75.707031 C 234.042969 75.363281 233.882812 75.042969 233.671875 74.75 C 233.457031 74.457031 233.203125 74.203125 232.910156 73.992188 C 232.617188 73.78125 232.296875 73.621094 231.953125 73.511719 L 231.226562 73.277344 C 230.257812 72.976562 229.414062 72.472656 228.695312 71.761719 C 227.976562 71.046875 227.460938 70.210938 227.148438 69.246094 C 226.691406 67.898438 226.148438 66.582031 225.519531 65.304688 C 225.058594 64.402344 224.832031 63.445312 224.835938 62.429688 C 224.84375 61.417969 225.082031 60.460938 225.554688 59.566406 L 225.902344 58.882812 C 226.070312 58.558594 226.183594 58.21875 226.242188 57.863281 C 226.300781 57.503906 226.300781 57.148438 226.246094 56.789062 C 226.1875 56.429688 226.078125 56.089844 225.914062 55.769531 C 225.746094 55.445312 225.535156 55.15625 225.277344 54.902344 L 223.214844 52.835938 L 221.152344 50.773438 C 220.898438 50.511719 220.613281 50.300781 220.289062 50.132812 C 219.96875 49.96875 219.628906 49.855469 219.273438 49.800781 C 218.914062 49.742188 218.558594 49.742188 218.199219 49.800781 C 217.84375 49.859375 217.503906 49.972656 217.183594 50.140625 Z M 196.410156 62.527344 C 196.972656 62.527344 197.53125 62.554688 198.089844 62.609375 C 198.648438 62.664062 199.203125 62.746094 199.753906 62.855469 C 200.304688 62.964844 200.847656 63.101562 201.382812 63.265625 C 201.921875 63.425781 202.449219 63.617188 202.964844 63.832031 C 203.484375 64.046875 203.992188 64.285156 204.488281 64.550781 C 204.980469 64.816406 205.460938 65.105469 205.929688 65.417969 C 206.394531 65.730469 206.84375 66.066406 207.277344 66.421875 C 207.710938 66.777344 208.128906 67.15625 208.523438 67.550781 C 208.921875 67.949219 209.296875 68.367188 209.652344 68.800781 C 210.007812 69.234375 210.34375 69.6875 210.65625 70.152344 C 210.964844 70.621094 211.253906 71.101562 211.519531 71.597656 C 211.785156 72.09375 212.023438 72.601562 212.238281 73.121094 C 212.453125 73.640625 212.640625 74.167969 212.804688 74.707031 C 212.96875 75.246094 213.101562 75.789062 213.210938 76.339844 C 213.324219 76.890625 213.40625 77.445312 213.460938 78.007812 C 213.515625 78.566406 213.542969 79.125 213.542969 79.6875 C 213.542969 80.25 213.515625 80.8125 213.460938 81.371094 C 213.40625 81.929688 213.324219 82.484375 213.214844 83.039062 C 213.105469 83.589844 212.96875 84.132812 212.804688 84.671875 C 212.640625 85.210938 212.453125 85.738281 212.238281 86.257812 C 212.023438 86.777344 211.785156 87.285156 211.519531 87.78125 C 211.253906 88.277344 210.96875 88.757812 210.65625 89.222656 C 210.34375 89.691406 210.007812 90.144531 209.652344 90.578125 C 209.296875 91.011719 208.921875 91.429688 208.523438 91.824219 C 208.128906 92.222656 207.714844 92.601562 207.277344 92.957031 C 206.84375 93.3125 206.394531 93.648438 205.929688 93.960938 C 205.460938 94.273438 204.980469 94.5625 204.488281 94.824219 C 203.992188 95.089844 203.484375 95.332031 202.96875 95.546875 C 202.449219 95.761719 201.921875 95.949219 201.382812 96.113281 C 200.847656 96.277344 200.304688 96.414062 199.753906 96.523438 C 199.203125 96.632812 198.648438 96.714844 198.089844 96.769531 C 197.53125 96.824219 196.972656 96.851562 196.410156 96.851562 C 195.851562 96.851562 195.289062 96.824219 194.734375 96.769531 C 194.175781 96.714844 193.621094 96.632812 193.070312 96.523438 C 192.519531 96.414062 191.976562 96.277344 191.4375 96.113281 C 190.902344 95.949219 190.375 95.761719 189.855469 95.546875 C 189.335938 95.332031 188.832031 95.089844 188.335938 94.828125 C 187.839844 94.5625 187.359375 94.273438 186.894531 93.960938 C 186.425781 93.648438 185.976562 93.3125 185.542969 92.957031 C 185.109375 92.601562 184.695312 92.222656 184.296875 91.828125 C 183.902344 91.429688 183.523438 91.011719 183.167969 90.578125 C 182.8125 90.144531 182.480469 89.691406 182.167969 89.226562 C 181.855469 88.757812 181.566406 88.277344 181.304688 87.78125 C 181.039062 87.285156 180.800781 86.777344 180.585938 86.257812 C 180.371094 85.738281 180.179688 85.210938 180.019531 84.671875 C 179.855469 84.132812 179.71875 83.589844 179.609375 83.039062 C 179.5 82.488281 179.417969 81.933594 179.363281 81.371094 C 179.308594 80.8125 179.28125 80.253906 179.28125 79.691406 C 179.28125 79.128906 179.308594 78.566406 179.363281 78.007812 C 179.417969 77.449219 179.5 76.894531 179.609375 76.339844 C 179.71875 75.789062 179.855469 75.246094 180.015625 74.707031 C 180.179688 74.167969 180.367188 73.640625 180.582031 73.121094 C 180.796875 72.601562 181.039062 72.09375 181.300781 71.597656 C 181.566406 71.101562 181.855469 70.621094 182.167969 70.152344 C 182.476562 69.6875 182.8125 69.234375 183.167969 68.800781 C 183.523438 68.367188 183.898438 67.949219 184.296875 67.554688 C 184.695312 67.15625 185.109375 66.777344 185.542969 66.421875 C 185.976562 66.066406 186.425781 65.730469 186.894531 65.417969 C 187.359375 65.105469 187.839844 64.816406 188.335938 64.550781 C 188.828125 64.289062 189.335938 64.046875 189.855469 63.832031 C 190.375 63.617188 190.902344 63.425781 191.4375 63.265625 C 191.976562 63.101562 192.519531 62.964844 193.070312 62.855469 C 193.617188 62.746094 194.171875 62.664062 194.730469 62.609375 C 195.289062 62.554688 195.851562 62.527344 196.410156 62.527344 Z M 121.035156 147.734375 C 120.363281 147.734375 119.695312 147.765625 119.03125 147.832031 C 118.363281 147.898438 117.703125 147.996094 117.046875 148.125 C 116.390625 148.257812 115.742188 148.421875 115.101562 148.613281 C 114.460938 148.808594 113.832031 149.035156 113.210938 149.292969 C 112.59375 149.546875 111.988281 149.835938 111.398438 150.152344 C 110.808594 150.46875 110.234375 150.8125 109.679688 151.183594 C 109.121094 151.554688 108.585938 151.957031 108.066406 152.382812 C 107.550781 152.804688 107.054688 153.257812 106.582031 153.730469 C 106.109375 154.203125 105.660156 154.699219 105.234375 155.21875 C 104.808594 155.738281 104.410156 156.277344 104.039062 156.832031 C 103.667969 157.390625 103.324219 157.964844 103.007812 158.558594 C 102.695312 159.148438 102.40625 159.753906 102.152344 160.375 C 101.894531 160.992188 101.671875 161.625 101.476562 162.265625 C 101.28125 162.90625 101.117188 163.558594 100.988281 164.214844 C 100.859375 164.871094 100.757812 165.535156 100.695312 166.203125 C 100.628906 166.871094 100.59375 167.539062 100.59375 168.210938 C 100.59375 168.878906 100.628906 169.550781 100.695312 170.214844 C 100.757812 170.882812 100.859375 171.546875 100.988281 172.203125 C 101.117188 172.863281 101.28125 173.511719 101.476562 174.152344 C 101.667969 174.796875 101.894531 175.425781 102.152344 176.046875 C 102.40625 176.664062 102.691406 177.269531 103.007812 177.863281 C 103.324219 178.453125 103.667969 179.027344 104.039062 179.585938 C 104.410156 180.144531 104.808594 180.679688 105.234375 181.199219 C 105.660156 181.71875 106.109375 182.214844 106.582031 182.6875 C 107.054688 183.164062 107.550781 183.613281 108.066406 184.039062 C 108.585938 184.464844 109.121094 184.863281 109.679688 185.234375 C 110.234375 185.609375 110.808594 185.953125 111.398438 186.269531 C 111.988281 186.585938 112.59375 186.871094 113.210938 187.128906 C 113.832031 187.382812 114.460938 187.609375 115.101562 187.804688 C 115.742188 188 116.390625 188.160156 117.046875 188.292969 C 117.703125 188.421875 118.363281 188.523438 119.03125 188.585938 C 119.695312 188.652344 120.363281 188.6875 121.03125 188.6875 C 121.703125 188.6875 122.371094 188.652344 123.035156 188.585938 C 123.703125 188.523438 124.363281 188.421875 125.019531 188.292969 C 125.675781 188.160156 126.324219 188 126.964844 187.804688 C 127.605469 187.609375 128.234375 187.382812 128.855469 187.128906 C 129.472656 186.871094 130.078125 186.585938 130.667969 186.269531 C 131.257812 185.953125 131.832031 185.609375 132.386719 185.234375 C 132.945312 184.863281 133.480469 184.464844 134 184.039062 C 134.515625 183.613281 135.011719 183.164062 135.484375 182.6875 C 135.957031 182.214844 136.40625 181.71875 136.832031 181.199219 C 137.257812 180.679688 137.652344 180.144531 138.027344 179.585938 C 138.398438 179.027344 138.742188 178.453125 139.058594 177.863281 C 139.371094 177.269531 139.660156 176.664062 139.914062 176.046875 C 140.171875 175.425781 140.394531 174.796875 140.589844 174.152344 C 140.785156 173.511719 140.945312 172.863281 141.078125 172.203125 C 141.207031 171.546875 141.304688 170.882812 141.371094 170.21875 C 141.4375 169.550781 141.46875 168.878906 141.46875 168.210938 C 141.46875 167.539062 141.4375 166.871094 141.371094 166.203125 C 141.304688 165.535156 141.207031 164.871094 141.078125 164.214844 C 140.945312 163.558594 140.785156 162.90625 140.589844 162.265625 C 140.394531 161.625 140.171875 160.992188 139.914062 160.375 C 139.660156 159.753906 139.371094 159.148438 139.058594 158.558594 C 138.742188 157.964844 138.398438 157.390625 138.027344 156.832031 C 137.652344 156.277344 137.257812 155.738281 136.832031 155.21875 C 136.40625 154.703125 135.957031 154.207031 135.484375 153.730469 C 135.011719 153.257812 134.515625 152.808594 134 152.382812 C 133.480469 151.957031 132.945312 151.558594 132.386719 151.183594 C 131.832031 150.8125 131.257812 150.46875 130.667969 150.152344 C 130.078125 149.835938 129.472656 149.550781 128.855469 149.292969 C 128.234375 149.035156 127.605469 148.808594 126.964844 148.613281 C 126.324219 148.421875 125.675781 148.257812 125.019531 148.125 C 124.363281 147.996094 123.703125 147.898438 123.035156 147.832031 C 122.371094 147.765625 121.703125 147.734375 121.035156 147.734375 Z M 121.035156 147.734375 " fill-opacity="1" fill-rule="evenodd"/></g></svg>
