<svg xmlns="http://www.w3.org/2000/svg" xmlns:xlink="http://www.w3.org/1999/xlink" width="500" zoomAndPan="magnify" viewBox="0 0 375 374.999991" height="500" preserveAspectRatio="xMidYMid meet" version="1.0"><defs><clipPath id="68288bc245"><path d="M 34.636719 44 L 340.636719 44 L 340.636719 331 L 34.636719 331 Z M 34.636719 44 " clip-rule="nonzero"/></clipPath></defs><g clip-path="url(#68288bc245)"><path fill="#ffffff" d="M 340.140625 330.984375 L 303.71875 330.984375 L 303.71875 289.421875 L 272.546875 274.421875 L 272.546875 330.984375 L 265.074219 330.984375 L 265.074219 270.816406 L 233.882812 255.796875 L 233.882812 330.984375 L 160.019531 330.984375 L 160.019531 185.5 L 329.625 283.414062 L 329.625 323.511719 L 340.140625 323.511719 Z M 242.507812 225.207031 L 242.507812 83.027344 L 282.179688 105.929688 L 293.769531 112.625 L 293.769531 254.804688 Z M 89.386719 141.410156 L 80.269531 136.109375 L 55.089844 150.652344 L 55.089844 233.847656 L 89.386719 214.058594 Z M 67.351562 158.886719 C 67.351562 156.820312 69.03125 155.160156 71.097656 155.160156 C 73.167969 155.160156 74.84375 156.820312 74.84375 158.886719 L 74.84375 213.421875 C 74.84375 215.488281 73.167969 217.167969 71.097656 217.167969 C 69.03125 217.167969 67.351562 215.488281 67.351562 213.421875 Z M 96.246094 210.097656 L 96.246094 87.585938 L 171.71875 44.007812 L 171.71875 184.332031 L 156.292969 175.425781 Z M 179.191406 188.644531 L 179.191406 46.464844 L 235.03125 78.714844 L 235.03125 220.894531 Z M 116.105469 190.75 C 114.320312 191.789062 112.042969 191.171875 111 189.386719 C 109.976562 187.621094 110.574219 185.324219 112.359375 184.296875 L 119.675781 180.074219 C 121.460938 179.050781 123.742188 179.652344 124.765625 181.4375 C 125.808594 183.21875 125.1875 185.5 123.40625 186.542969 Z M 153.78125 168.996094 C 151.996094 170.039062 149.71875 169.417969 148.675781 167.632812 C 147.648438 165.867188 148.25 163.570312 150.035156 162.546875 L 157.351562 158.320312 C 159.136719 157.296875 161.414062 157.898438 162.441406 159.683594 C 163.484375 161.46875 162.863281 163.746094 161.078125 164.789062 Z M 116.105469 169.261719 C 114.320312 170.285156 112.042969 169.683594 111 167.898438 C 109.976562 166.113281 110.574219 163.835938 112.359375 162.792969 L 119.675781 158.585938 C 121.460938 157.542969 123.742188 158.164062 124.765625 159.945312 C 125.808594 161.714844 125.1875 164.011719 123.40625 165.035156 Z M 153.78125 147.507812 C 151.996094 148.53125 149.71875 147.929688 148.675781 146.144531 C 147.648438 144.363281 148.25 142.082031 150.035156 141.039062 L 157.351562 136.832031 C 159.136719 135.792969 161.414062 136.410156 162.441406 138.175781 C 163.484375 139.960938 162.863281 142.257812 161.078125 143.285156 Z M 116.105469 147.753906 C 114.320312 148.796875 112.042969 148.179688 111 146.394531 C 109.976562 144.609375 110.574219 142.328125 112.359375 141.304688 L 119.675781 137.082031 C 121.460938 136.058594 123.742188 136.65625 124.765625 138.441406 C 125.808594 140.226562 125.1875 142.507812 123.40625 143.550781 Z M 153.78125 126 C 151.996094 127.042969 149.71875 126.425781 148.675781 124.640625 C 147.648438 122.855469 148.25 120.578125 150.035156 119.550781 L 157.351562 115.328125 C 159.136719 114.304688 161.414062 114.90625 162.441406 116.691406 C 163.484375 118.472656 162.863281 120.753906 161.078125 121.777344 Z M 116.105469 126.265625 C 114.320312 127.292969 112.042969 126.691406 111 124.90625 C 109.976562 123.121094 110.574219 120.839844 112.359375 119.800781 L 119.675781 115.59375 C 121.460938 114.550781 123.742188 115.152344 124.765625 116.9375 C 125.808594 118.722656 125.1875 121.019531 123.40625 122.042969 Z M 153.78125 104.515625 C 151.996094 105.539062 149.71875 104.9375 148.675781 103.152344 C 147.648438 101.367188 148.25 99.089844 150.035156 98.046875 L 157.351562 93.824219 C 159.136719 92.796875 161.414062 93.398438 162.441406 95.183594 C 163.484375 96.96875 162.863281 99.25 161.078125 100.289062 Z M 116.105469 104.761719 C 114.320312 105.804688 112.042969 105.183594 111 103.398438 C 109.976562 101.617188 110.574219 99.335938 112.359375 98.3125 L 119.675781 94.089844 C 121.460938 93.0625 123.742188 93.664062 124.765625 95.449219 C 125.808594 97.234375 125.1875 99.511719 123.40625 100.539062 Z M 153.78125 83.007812 C 151.996094 84.050781 149.71875 83.433594 148.675781 81.648438 C 147.648438 79.863281 148.25 77.582031 150.035156 76.558594 L 157.351562 72.335938 C 159.136719 71.292969 161.414062 71.910156 162.441406 73.695312 C 163.484375 75.480469 162.863281 77.761719 161.078125 78.785156 Z M 152.542969 330.984375 L 34.855469 330.984375 L 34.855469 323.511719 L 45.371094 323.511719 L 45.371094 247.382812 L 152.542969 185.5 Z M 52.226562 291.085938 L 52.226562 283.328125 L 145.6875 256.34375 L 145.6875 264.101562 Z M 52.226562 291.085938 " fill-opacity="1" fill-rule="evenodd"/></g></svg>
